<?xml version="1.0" encoding="UTF-8" standalone="no"?>
<!DOCTYPE svg PUBLIC "-//W3C//DTD SVG 1.1//EN"
 "http://www.w3.org/Graphics/SVG/1.1/DTD/svg11.dtd">
<!-- Generated by graphviz version 15.1.0 (20260618.0150)
 -->
<!-- Title: arena.h Pages: 1 -->
<svg width="893pt" height="140pt"
 viewBox="0.00 0.00 893.00 140.00" xmlns="http://www.w3.org/2000/svg" xmlns:xlink="http://www.w3.org/1999/xlink">
<g id="graph0" class="graph" transform="scale(1 1) rotate(0) translate(4 136)">
<title>arena.h</title>
<!-- Node1 -->
<g id="Node000001" class="node">
<title>Node1</title>
<g id="a_Node000001"><a xlink:title="Page&#45;based region allocation and arena&#45;owned object lifetime support.">
<polygon fill="#999999" stroke="#666666" points="449.75,-132 401.5,-132 401.5,-112 449.75,-112 449.75,-132"/>
<text xml:space="preserve" text-anchor="middle" x="425.62" y="-118.5" font-family="Helvetica,sans-Serif" font-size="10.00">arena.h</text>
</a>
</g>
</g>
<!-- Node2 -->
<g id="Node000002" class="node">
<title>Node2</title>
<g id="a_Node000002"><a xlink:href="status_8h.html" target="_top" xlink:title="Provides classes, types and utilities for error handling.">
<polygon fill="white" stroke="#666666" points="167.25,-76 116,-76 116,-56 167.25,-56 167.25,-76"/>
<text xml:space="preserve" text-anchor="middle" x="141.62" y="-62.5" font-family="Helvetica,sans-Serif" font-size="10.00">status.h</text>
</a>
</g>
</g>
<!-- Node1&#45;&gt;Node2 -->
<g id="edge1_Node000001_Node000002" class="edge">
<title>Node1&#45;&gt;Node2</title>
<g id="a_edge1_Node000001_Node000002"><a xlink:title=" ">
<path fill="none" stroke="#63b8ff" d="M401.32,-116.84C357.37,-109.25 261.81,-92.41 181.62,-76 180.62,-75.79 179.6,-75.58 178.57,-75.37"/>
<polygon fill="#63b8ff" stroke="#63b8ff" points="179.41,-71.97 168.89,-73.28 177.93,-78.81 179.41,-71.97"/>
</a>
</g>
</g>
<!-- Node3 -->
<g id="Node000003" class="node">
<title>Node3</title>
<g id="a_Node000003"><a xlink:title=" ">
<polygon fill="#e0e0e0" stroke="#999999" points="45.25,-20 0,-20 0,0 45.25,0 45.25,-20"/>
<text xml:space="preserve" text-anchor="middle" x="22.62" y="-6.5" font-family="Helvetica,sans-Serif" font-size="10.00">cstdint</text>
</a>
</g>
</g>
<!-- Node1&#45;&gt;Node3 -->
<g id="edge10_Node000001_Node000003" class="edge">
<title>Node1&#45;&gt;Node3</title>
<g id="a_edge10_Node000001_Node000003"><a xlink:title=" ">
<path fill="none" stroke="#63b8ff" d="M401.32,-119.75C333.58,-115.95 144.02,-103.12 88.62,-76 66.82,-65.33 47.79,-44.64 35.83,-29.46"/>
<polygon fill="#63b8ff" stroke="#63b8ff" points="38.76,-27.54 29.95,-21.65 33.17,-31.75 38.76,-27.54"/>
</a>
</g>
</g>
<!-- Node4 -->
<g id="Node000004" class="node">
<title>Node4</title>
<g id="a_Node000004"><a xlink:title=" ">
<polygon fill="#e0e0e0" stroke="#999999" points="103.62,-20 63.62,-20 63.62,0 103.62,0 103.62,-20"/>
<text xml:space="preserve" text-anchor="middle" x="83.62" y="-6.5" font-family="Helvetica,sans-Serif" font-size="10.00">string</text>
</a>
</g>
</g>
<!-- Node1&#45;&gt;Node4 -->
<g id="edge17_Node000001_Node000004" class="edge">
<title>Node1&#45;&gt;Node4</title>
<g id="a_edge17_Node000001_Node000004"><a xlink:title=" ">
<path fill="none" stroke="#63b8ff" d="M401.42,-120.74C334.98,-119.55 151.76,-112.91 106.62,-76 93.3,-65.11 87.69,-45.95 85.33,-31.25"/>
<polygon fill="#63b8ff" stroke="#63b8ff" points="88.85,-31.24 84.19,-21.73 81.9,-32.07 88.85,-31.24"/>
</a>
</g>
</g>
<!-- Node5 -->
<g id="Node000005" class="node">
<title>Node5</title>
<g id="a_Node000005"><a xlink:title=" ">
<polygon fill="#e0e0e0" stroke="#999999" points="313.25,-20 274,-20 274,0 313.25,0 313.25,-20"/>
<text xml:space="preserve" text-anchor="middle" x="293.62" y="-6.5" font-family="Helvetica,sans-Serif" font-size="10.00">utility</text>
</a>
</g>
</g>
<!-- Node1&#45;&gt;Node5 -->
<g id="edge19_Node000001_Node000005" class="edge">
<title>Node1&#45;&gt;Node5</title>
<g id="a_edge19_Node000001_Node000005"><a xlink:title=" ">
<path fill="none" stroke="#63b8ff" d="M401.25,-119.53C350.84,-115.92 237.89,-104.75 214.62,-76 196.4,-53.47 233.49,-33.26 262.8,-21.56"/>
<polygon fill="#63b8ff" stroke="#63b8ff" points="263.98,-24.85 272.1,-18.04 261.51,-18.3 263.98,-24.85"/>
</a>
</g>
</g>
<!-- Node8 -->
<g id="Node000008" class="node">
<title>Node8</title>
<g id="a_Node000008"><a xlink:title=" ">
<polygon fill="#e0e0e0" stroke="#999999" points="252.03,-76 223.22,-76 223.22,-56 252.03,-56 252.03,-76"/>
<text xml:space="preserve" text-anchor="middle" x="237.62" y="-62.5" font-family="Helvetica,sans-Serif" font-size="10.00">bit</text>
</a>
</g>
</g>
<!-- Node1&#45;&gt;Node8 -->
<g id="edge7_Node000001_Node000008" class="edge">
<title>Node1&#45;&gt;Node8</title>
<g id="a_edge7_Node000001_Node000008"><a xlink:title=" ">
<path fill="none" stroke="#63b8ff" d="M401.25,-115.05C371.05,-107.52 317.83,-93.74 263.21,-76.28"/>
<polygon fill="#63b8ff" stroke="#63b8ff" points="264.31,-72.95 253.71,-73.2 262.15,-79.61 264.31,-72.95"/>
</a>
</g>
</g>
<!-- Node9 -->
<g id="Node000009" class="node">
<title>Node9</title>
<g id="a_Node000009"><a xlink:title=" ">
<polygon fill="#e0e0e0" stroke="#999999" points="318.75,-76 270.5,-76 270.5,-56 318.75,-56 318.75,-76"/>
<text xml:space="preserve" text-anchor="middle" x="294.62" y="-62.5" font-family="Helvetica,sans-Serif" font-size="10.00">cassert</text>
</a>
</g>
</g>
<!-- Node1&#45;&gt;Node9 -->
<g id="edge8_Node000001_Node000009" class="edge">
<title>Node1&#45;&gt;Node9</title>
<g id="a_edge8_Node000001_Node000009"><a xlink:title=" ">
<path fill="none" stroke="#63b8ff" d="M402.81,-111.59C382.18,-103.09 351.54,-90.46 328.13,-80.81"/>
<polygon fill="#63b8ff" stroke="#63b8ff" points="329.6,-77.63 319.02,-77.06 326.93,-84.1 329.6,-77.63"/>
</a>
</g>
</g>
<!-- Node10 -->
<g id="Node000010" class="node">
<title>Node10</title>
<g id="a_Node000010"><a xlink:title=" ">
<polygon fill="#e0e0e0" stroke="#999999" points="384.75,-76 336.5,-76 336.5,-56 384.75,-56 384.75,-76"/>
<text xml:space="preserve" text-anchor="middle" x="360.62" y="-62.5" font-family="Helvetica,sans-Serif" font-size="10.00">cstddef</text>
</a>
</g>
</g>
<!-- Node1&#45;&gt;Node10 -->
<g id="edge9_Node000001_Node000010" class="edge">
<title>Node1&#45;&gt;Node10</title>
<g id="a_edge9_Node000001_Node000010"><a xlink:title=" ">
<path fill="none" stroke="#63b8ff" d="M414.3,-111.59C404.98,-103.85 391.55,-92.69 380.45,-83.47"/>
<polygon fill="#63b8ff" stroke="#63b8ff" points="382.91,-80.96 372.98,-77.27 378.44,-86.35 382.91,-80.96"/>
</a>
</g>
</g>
<!-- Node11 -->
<g id="Node000011" class="node">
<title>Node11</title>
<g id="a_Node000011"><a xlink:title=" ">
<polygon fill="#e0e0e0" stroke="#999999" points="448.25,-76 403,-76 403,-56 448.25,-56 448.25,-76"/>
<text xml:space="preserve" text-anchor="middle" x="425.62" y="-62.5" font-family="Helvetica,sans-Serif" font-size="10.00">cstring</text>
</a>
</g>
</g>
<!-- Node1&#45;&gt;Node11 -->
<g id="edge11_Node000001_Node000011" class="edge">
<title>Node1&#45;&gt;Node11</title>
<g id="a_edge11_Node000001_Node000011"><a xlink:title=" ">
<path fill="none" stroke="#63b8ff" d="M425.62,-111.59C425.62,-105.01 425.62,-95.96 425.62,-87.73"/>
<polygon fill="#63b8ff" stroke="#63b8ff" points="429.13,-87.81 425.63,-77.81 422.13,-87.81 429.13,-87.81"/>
</a>
</g>
</g>
<!-- Node12 -->
<g id="Node000012" class="node">
<title>Node12</title>
<g id="a_Node000012"><a xlink:title=" ">
<polygon fill="#e0e0e0" stroke="#999999" points="510.5,-76 466.75,-76 466.75,-56 510.5,-56 510.5,-76"/>
<text xml:space="preserve" text-anchor="middle" x="488.62" y="-62.5" font-family="Helvetica,sans-Serif" font-size="10.00">format</text>
</a>
</g>
</g>
<!-- Node1&#45;&gt;Node12 -->
<g id="edge12_Node000001_Node000012" class="edge">
<title>Node1&#45;&gt;Node12</title>
<g id="a_edge12_Node000001_Node000012"><a xlink:title=" ">
<path fill="none" stroke="#63b8ff" d="M436.6,-111.59C445.54,-103.93 458.4,-92.91 469.09,-83.75"/>
<polygon fill="#63b8ff" stroke="#63b8ff" points="471.31,-86.45 476.63,-77.28 466.76,-81.13 471.31,-86.45"/>
</a>
</g>
</g>
<!-- Node13 -->
<g id="Node000013" class="node">
<title>Node13</title>
<g id="a_Node000013"><a xlink:title=" ">
<polygon fill="#e0e0e0" stroke="#999999" points="568.25,-76 529,-76 529,-56 568.25,-56 568.25,-76"/>
<text xml:space="preserve" text-anchor="middle" x="548.62" y="-62.5" font-family="Helvetica,sans-Serif" font-size="10.00">limits</text>
</a>
</g>
</g>
<!-- Node1&#45;&gt;Node13 -->
<g id="edge13_Node000001_Node000013" class="edge">
<title>Node1&#45;&gt;Node13</title>
<g id="a_edge13_Node000001_Node000013"><a xlink:title=" ">
<path fill="none" stroke="#63b8ff" d="M447.05,-111.59C466.72,-102.96 496.07,-90.07 518.17,-80.37"/>
<polygon fill="#63b8ff" stroke="#63b8ff" points="519.53,-83.6 527.28,-76.37 516.72,-77.19 519.53,-83.6"/>
</a>
</g>
</g>
<!-- Node14 -->
<g id="Node000014" class="node">
<title>Node14</title>
<g id="a_Node000014"><a xlink:title=" ">
<polygon fill="#e0e0e0" stroke="#999999" points="637.25,-76 586,-76 586,-56 637.25,-56 637.25,-76"/>
<text xml:space="preserve" text-anchor="middle" x="611.62" y="-62.5" font-family="Helvetica,sans-Serif" font-size="10.00">memory</text>
</a>
</g>
</g>
<!-- Node1&#45;&gt;Node14 -->
<g id="edge14_Node000001_Node000014" class="edge">
<title>Node1&#45;&gt;Node14</title>
<g id="a_edge14_Node000001_Node000014"><a xlink:title=" ">
<path fill="none" stroke="#63b8ff" d="M449.94,-113.94C481.71,-104.72 537.64,-88.48 574.67,-77.73"/>
<polygon fill="#63b8ff" stroke="#63b8ff" points="575.42,-81.15 584.05,-75.01 573.47,-74.43 575.42,-81.15"/>
</a>
</g>
</g>
<!-- Node15 -->
<g id="Node000015" class="node">
<title>Node15</title>
<g id="a_Node000015"><a xlink:title=" ">
<polygon fill="#e0e0e0" stroke="#999999" points="689.62,-76 655.62,-76 655.62,-56 689.62,-56 689.62,-76"/>
<text xml:space="preserve" text-anchor="middle" x="672.62" y="-62.5" font-family="Helvetica,sans-Serif" font-size="10.00">new</text>
</a>
</g>
</g>
<!-- Node1&#45;&gt;Node15 -->
<g id="edge15_Node000001_Node000015" class="edge">
<title>Node1&#45;&gt;Node15</title>
<g id="a_edge15_Node000001_Node000015"><a xlink:title=" ">
<path fill="none" stroke="#63b8ff" d="M450.07,-117.11C489.25,-110.65 568.63,-96.61 644.68,-76.24"/>
<polygon fill="#63b8ff" stroke="#63b8ff" points="645.19,-79.73 653.92,-73.72 643.35,-72.97 645.19,-79.73"/>
</a>
</g>
</g>
<!-- Node16 -->
<g id="Node000016" class="node">
<title>Node16</title>
<g id="a_Node000016"><a xlink:title=" ">
<polygon fill="#e0e0e0" stroke="#999999" points="745.12,-76 708.12,-76 708.12,-56 745.12,-56 745.12,-76"/>
<text xml:space="preserve" text-anchor="middle" x="726.62" y="-62.5" font-family="Helvetica,sans-Serif" font-size="10.00">span</text>
</a>
</g>
</g>
<!-- Node1&#45;&gt;Node16 -->
<g id="edge16_Node000001_Node000016" class="edge">
<title>Node1&#45;&gt;Node16</title>
<g id="a_edge16_Node000001_Node000016"><a xlink:title=" ">
<path fill="none" stroke="#63b8ff" d="M449.97,-118.21C496.19,-112.66 599.96,-98.96 696.62,-76.16"/>
<polygon fill="#63b8ff" stroke="#63b8ff" points="697.38,-79.58 706.28,-73.84 695.74,-72.77 697.38,-79.58"/>
</a>
</g>
</g>
<!-- Node17 -->
<g id="Node000017" class="node">
<title>Node17</title>
<g id="a_Node000017"><a xlink:title=" ">
<polygon fill="#e0e0e0" stroke="#999999" points="824.5,-76 762.75,-76 762.75,-56 824.5,-56 824.5,-76"/>
<text xml:space="preserve" text-anchor="middle" x="793.62" y="-62.5" font-family="Helvetica,sans-Serif" font-size="10.00">type_traits</text>
</a>
</g>
</g>
<!-- Node1&#45;&gt;Node17 -->
<g id="edge18_Node000001_Node000017" class="edge">
<title>Node1&#45;&gt;Node17</title>
<g id="a_edge18_Node000001_Node000017"><a xlink:title=" ">
<path fill="none" stroke="#63b8ff" d="M450.1,-118.42C503.23,-112.67 633.3,-97.69 751.56,-76.44"/>
<polygon fill="#63b8ff" stroke="#63b8ff" points="751.9,-79.93 761.11,-74.7 750.64,-73.05 751.9,-79.93"/>
</a>
</g>
</g>
<!-- Node18 -->
<g id="Node000018" class="node">
<title>Node18</title>
<g id="a_Node000018"><a xlink:title=" ">
<polygon fill="#e0e0e0" stroke="#999999" points="885.12,-76 842.12,-76 842.12,-56 885.12,-56 885.12,-76"/>
<text xml:space="preserve" text-anchor="middle" x="863.62" y="-62.5" font-family="Helvetica,sans-Serif" font-size="10.00">vector</text>
</a>
</g>
</g>
<!-- Node1&#45;&gt;Node18 -->
<g id="edge20_Node000001_Node000018" class="edge">
<title>Node1&#45;&gt;Node18</title>
<g id="a_edge20_Node000001_Node000018"><a xlink:title=" ">
<path fill="none" stroke="#63b8ff" d="M450.24,-119.84C512.54,-116.59 681.59,-105.74 830.64,-76.3"/>
<polygon fill="#63b8ff" stroke="#63b8ff" points="831.19,-79.76 840.3,-74.35 829.81,-72.89 831.19,-79.76"/>
</a>
</g>
</g>
<!-- Node2&#45;&gt;Node3 -->
<g id="edge2_Node000002_Node000003" class="edge">
<title>Node2&#45;&gt;Node3</title>
<g id="a_edge2_Node000002_Node000003"><a xlink:title=" ">
<path fill="none" stroke="#63b8ff" d="M120.9,-55.59C102.41,-47.21 75.08,-34.8 53.93,-25.21"/>
<polygon fill="#63b8ff" stroke="#63b8ff" points="55.45,-22.05 44.89,-21.1 52.55,-28.42 55.45,-22.05"/>
</a>
</g>
</g>
<!-- Node2&#45;&gt;Node4 -->
<g id="edge3_Node000002_Node000004" class="edge">
<title>Node2&#45;&gt;Node4</title>
<g id="a_edge3_Node000002_Node000004"><a xlink:title=" ">
<path fill="none" stroke="#63b8ff" d="M131.52,-55.59C123.37,-48.01 111.69,-37.13 101.91,-28.02"/>
<polygon fill="#63b8ff" stroke="#63b8ff" points="104.42,-25.58 94.72,-21.33 99.65,-30.71 104.42,-25.58"/>
</a>
</g>
</g>
<!-- Node2&#45;&gt;Node5 -->
<g id="edge4_Node000002_Node000005" class="edge">
<title>Node2&#45;&gt;Node5</title>
<g id="a_edge4_Node000002_Node000005"><a xlink:title=" ">
<path fill="none" stroke="#63b8ff" d="M167.41,-55.84C193.76,-46.48 234.7,-31.94 262.76,-21.97"/>
<polygon fill="#63b8ff" stroke="#63b8ff" points="263.87,-25.28 272.12,-18.64 261.53,-18.69 263.87,-25.28"/>
</a>
</g>
</g>
<!-- Node6 -->
<g id="Node000006" class="node">
<title>Node6</title>
<g id="a_Node000006"><a xlink:title=" ">
<polygon fill="#e0e0e0" stroke="#999999" points="256.12,-20 183.12,-20 183.12,0 256.12,0 256.12,-20"/>
<text xml:space="preserve" text-anchor="middle" x="219.62" y="-6.5" font-family="Helvetica,sans-Serif" font-size="10.00">system_error</text>
</a>
</g>
</g>
<!-- Node2&#45;&gt;Node6 -->
<g id="edge5_Node000002_Node000006" class="edge">
<title>Node2&#45;&gt;Node6</title>
<g id="a_edge5_Node000002_Node000006"><a xlink:title=" ">
<path fill="none" stroke="#63b8ff" d="M155.21,-55.59C166.66,-47.67 183.29,-36.16 196.78,-26.82"/>
<polygon fill="#63b8ff" stroke="#63b8ff" points="198.46,-29.91 204.69,-21.34 194.47,-24.16 198.46,-29.91"/>
</a>
</g>
</g>
<!-- Node7 -->
<g id="Node000007" class="node">
<title>Node7</title>
<g id="a_Node000007"><a xlink:title=" ">
<polygon fill="#e0e0e0" stroke="#999999" points="165.12,-20 122.12,-20 122.12,0 165.12,0 165.12,-20"/>
<text xml:space="preserve" text-anchor="middle" x="143.62" y="-6.5" font-family="Helvetica,sans-Serif" font-size="10.00">cerrno</text>
</a>
</g>
</g>
<!-- Node2&#45;&gt;Node7 -->
<g id="edge6_Node000002_Node000007" class="edge">
<title>Node2&#45;&gt;Node7</title>
<g id="a_edge6_Node000002_Node000007"><a xlink:title=" ">
<path fill="none" stroke="#63b8ff" d="M141.97,-55.59C142.22,-49.01 142.55,-39.96 142.86,-31.73"/>
<polygon fill="#63b8ff" stroke="#63b8ff" points="146.35,-31.93 143.22,-21.81 139.36,-31.67 146.35,-31.93"/>
</a>
</g>
</g>
</g>
</svg>
