<?xml version="1.0" encoding="UTF-8" standalone="no"?>
<!DOCTYPE svg PUBLIC "-//W3C//DTD SVG 1.1//EN"
 "http://www.w3.org/Graphics/SVG/1.1/DTD/svg11.dtd">
<!-- Generated by graphviz version 15.1.0 (20260618.0150)
 -->
<!-- Title: bloom_section.h Pages: 1 -->
<svg width="194pt" height="140pt"
 viewBox="0.00 0.00 194.00 140.00" xmlns="http://www.w3.org/2000/svg" xmlns:xlink="http://www.w3.org/1999/xlink">

<svg id="main" version="1.1" xmlns="http://www.w3.org/2000/svg" xmlns:xlink="http://www.w3.org/1999/xlink" xml:space="preserve">

<style type="text/css"><![CDATA[
.node, .edge {opacity: 0.7;}
.node.selected, .edge.selected {opacity: 1;}
.edge:hover path { stroke: red; }
.edge:hover polygon { stroke: red; fill: red; }
]]></style>
<script type="application/ecmascript" xlink:href="svg.min.js"/>
<svg id="graph" class="graph">
<g id="graph0" class="graph" transform="scale(1 1) rotate(0) translate(4 136)">
<title>bloom_section.h</title>
<!-- Node1 -->
<g id="Node000001" class="node">
<title>Node1</title>
<g id="a_Node000001"><a xlink:title="Fixed&#45;size Bloom filter section for negative SSTable lookups.">
<polygon fill="#999999" stroke="#666666" points="163.88,-132 76.62,-132 76.62,-112 163.88,-112 163.88,-132"/>
<text xml:space="preserve" text-anchor="middle" x="120.25" y="-118.5" font-family="Helvetica,sans-Serif" font-size="10.00">bloom_section.h</text>
</a>
</g>
</g>
<!-- Node2 -->
<g id="Node000002" class="node">
<title>Node2</title>
<g id="a_Node000002"><a xlink:href="sstable__entities_8h.html" target="_top" xlink:title="Shared constants and section types for SSTable format version 1.">
<polygon fill="white" stroke="#666666" points="92.5,-76 0,-76 0,-56 92.5,-56 92.5,-76"/>
<text xml:space="preserve" text-anchor="middle" x="46.25" y="-62.5" font-family="Helvetica,sans-Serif" font-size="10.00">sstable_entities.h</text>
</a>
</g>
</g>
<!-- Node1&#45;&gt;Node2 -->
<g id="edge1_Node000001_Node000002" class="edge">
<title>Node1&#45;&gt;Node2</title>
<g id="a_edge1_Node000001_Node000002"><a xlink:title=" ">
<path fill="none" stroke="#63b8ff" d="M107.36,-111.59C96.54,-103.7 80.84,-92.24 68.06,-82.92"/>
<polygon fill="#63b8ff" stroke="#63b8ff" points="70.36,-80.26 60.21,-77.19 66.23,-85.91 70.36,-80.26"/>
</a>
</g>
</g>
<!-- Node3 -->
<g id="Node000003" class="node">
<title>Node3</title>
<g id="a_Node000003"><a xlink:href="status_8h.html" target="_top" xlink:title="Provides classes, types and utilities for error handling.">
<polygon fill="white" stroke="#666666" points="168.88,-20 117.62,-20 117.62,0 168.88,0 168.88,-20"/>
<text xml:space="preserve" text-anchor="middle" x="143.25" y="-6.5" font-family="Helvetica,sans-Serif" font-size="10.00">status.h</text>
</a>
</g>
</g>
<!-- Node1&#45;&gt;Node3 -->
<g id="edge2_Node000001_Node000003" class="edge">
<title>Node1&#45;&gt;Node3</title>
<g id="a_edge2_Node000001_Node000003"><a xlink:title=" ">
<path fill="none" stroke="#63b8ff" d="M122.21,-111.62C125.91,-93.92 134,-55.24 139,-31.32"/>
<polygon fill="#63b8ff" stroke="#63b8ff" points="142.36,-32.34 140.98,-21.84 135.51,-30.91 142.36,-32.34"/>
</a>
</g>
</g>
<!-- Node4 -->
<g id="Node000004" class="node">
<title>Node4</title>
<g id="a_Node000004"><a xlink:href="file_8h.html" target="_top" xlink:title="Provides platform&#45;specific wrappers around OS file and directory system calls.">
<polygon fill="white" stroke="#666666" points="185.75,-76 148.75,-76 148.75,-56 185.75,-56 185.75,-76"/>
<text xml:space="preserve" text-anchor="middle" x="167.25" y="-62.5" font-family="Helvetica,sans-Serif" font-size="10.00">file.h</text>
</a>
</g>
</g>
<!-- Node1&#45;&gt;Node4 -->
<g id="edge3_Node000001_Node000004" class="edge">
<title>Node1&#45;&gt;Node4</title>
<g id="a_edge3_Node000001_Node000004"><a xlink:title=" ">
<path fill="none" stroke="#63b8ff" d="M128.44,-111.59C134.84,-104.24 143.93,-93.8 151.7,-84.87"/>
<polygon fill="#63b8ff" stroke="#63b8ff" points="154.24,-87.28 158.16,-77.44 148.96,-82.69 154.24,-87.28"/>
</a>
</g>
</g>
<!-- Node4&#45;&gt;Node3 -->
<g id="edge4_Node000004_Node000003" class="edge">
<title>Node4&#45;&gt;Node3</title>
<g id="a_edge4_Node000004_Node000003"><a xlink:title=" ">
<path fill="none" stroke="#63b8ff" d="M163.07,-55.59C160.01,-48.7 155.74,-39.1 151.95,-30.57"/>
<polygon fill="#63b8ff" stroke="#63b8ff" points="155.26,-29.4 148,-21.68 148.86,-32.24 155.26,-29.4"/>
</a>
</g>
</g>
</g>
</svg>
</svg>

<style type='text/css'>
<![CDATA[
[data-mouse-over-selected='false'] { opacity: 0.7; }
[data-mouse-over-selected='true']  { opacity: 1.0; }
]]>
</style>
<script type="application/ecmascript"><![CDATA[
document.addEventListener('DOMContentLoaded', (event) => {
  highlightEdges();
  highlightAdjacentNodes();
});
]]></script>
</svg>
