<?xml version="1.0" encoding="UTF-8" standalone="no"?>
<!DOCTYPE svg PUBLIC "-//W3C//DTD SVG 1.1//EN"
 "http://www.w3.org/Graphics/SVG/1.1/DTD/svg11.dtd">
<!-- Generated by graphviz version 15.1.0 (20260618.0150)
 -->
<!-- Title: file_header_section.h Pages: 1 -->
<svg width="383pt" height="252pt"
 viewBox="0.00 0.00 383.00 252.00" xmlns="http://www.w3.org/2000/svg" xmlns:xlink="http://www.w3.org/1999/xlink">

<svg id="main" version="1.1" xmlns="http://www.w3.org/2000/svg" xmlns:xlink="http://www.w3.org/1999/xlink" xml:space="preserve">

<style type="text/css"><![CDATA[
.node, .edge {opacity: 0.7;}
.node.selected, .edge.selected {opacity: 1;}
.edge:hover path { stroke: red; }
.edge:hover polygon { stroke: red; fill: red; }
]]></style>
<script type="application/ecmascript" xlink:href="svg.min.js"/>
<svg id="graph" class="graph">
<g id="graph0" class="graph" transform="scale(1 1) rotate(0) translate(4 248)">
<title>file_header_section.h</title>
<!-- Node1 -->
<g id="Node000001" class="node">
<title>Node1</title>
<g id="a_Node000001"><a xlink:title="Fixed SSTable identity and format&#45;version header.">
<polygon fill="#999999" stroke="#666666" points="202.25,-244 94,-244 94,-224 202.25,-224 202.25,-244"/>
<text xml:space="preserve" text-anchor="middle" x="148.12" y="-230.5" font-family="Helvetica,sans-Serif" font-size="10.00">file_header_section.h</text>
</a>
</g>
</g>
<!-- Node2 -->
<g id="Node000002" class="node">
<title>Node2</title>
<g id="a_Node000002"><a xlink:href="status_8h.html" target="_top" xlink:title="Provides classes, types and utilities for error handling.">
<polygon fill="white" stroke="#666666" points="108.75,-20 57.5,-20 57.5,0 108.75,0 108.75,-20"/>
<text xml:space="preserve" text-anchor="middle" x="83.12" y="-6.5" font-family="Helvetica,sans-Serif" font-size="10.00">status.h</text>
</a>
</g>
</g>
<!-- Node1&#45;&gt;Node2 -->
<g id="edge1_Node000001_Node000002" class="edge">
<title>Node1&#45;&gt;Node2</title>
<g id="a_edge1_Node000001_Node000002"><a xlink:title=" ">
<path fill="none" stroke="#63b8ff" d="M121.93,-223.61C87.6,-209.67 28.94,-179.9 5.12,-132 -14.66,-92.22 30.64,-49.34 60.18,-26.85"/>
<polygon fill="#63b8ff" stroke="#63b8ff" points="61.9,-29.93 67.89,-21.19 57.76,-24.28 61.9,-29.93"/>
</a>
</g>
</g>
<!-- Node3 -->
<g id="Node000003" class="node">
<title>Node3</title>
<g id="a_Node000003"><a xlink:href="file__helpers_8h.html" target="_top" xlink:title="Bounds checks, alignment, and padding for block&#45;structured files.">
<polygon fill="white" stroke="#666666" points="88,-132 14.25,-132 14.25,-112 88,-112 88,-132"/>
<text xml:space="preserve" text-anchor="middle" x="51.12" y="-118.5" font-family="Helvetica,sans-Serif" font-size="10.00">file_helpers.h</text>
</a>
</g>
</g>
<!-- Node1&#45;&gt;Node3 -->
<g id="edge2_Node000001_Node000003" class="edge">
<title>Node1&#45;&gt;Node3</title>
<g id="a_edge2_Node000001_Node000003"><a xlink:title=" ">
<path fill="none" stroke="#63b8ff" d="M136.65,-223.56C126.33,-214.83 111.01,-201.23 99.12,-188 85.82,-173.2 72.53,-154.84 63.31,-141.42"/>
<polygon fill="#63b8ff" stroke="#63b8ff" points="66.47,-139.84 57.97,-133.51 60.67,-143.75 66.47,-139.84"/>
</a>
</g>
</g>
<!-- Node4 -->
<g id="Node000004" class="node">
<title>Node4</title>
<g id="a_Node000004"><a xlink:href="file_8h.html" target="_top" xlink:title="Provides platform&#45;specific wrappers around OS file and directory system calls.">
<polygon fill="white" stroke="#666666" points="129.62,-76 92.62,-76 92.62,-56 129.62,-56 129.62,-76"/>
<text xml:space="preserve" text-anchor="middle" x="111.12" y="-62.5" font-family="Helvetica,sans-Serif" font-size="10.00">file.h</text>
</a>
</g>
</g>
<!-- Node1&#45;&gt;Node4 -->
<g id="edge10_Node000001_Node000004" class="edge">
<title>Node1&#45;&gt;Node4</title>
<g id="a_edge10_Node000001_Node000004"><a xlink:title=" ">
<path fill="none" stroke="#63b8ff" d="M144.63,-223.81C141.31,-214.79 136.35,-200.6 133.12,-188 124.18,-153.11 117.47,-111.66 113.94,-87.45"/>
<polygon fill="#63b8ff" stroke="#63b8ff" points="117.42,-87.11 112.55,-77.7 110.49,-88.09 117.42,-87.11"/>
</a>
</g>
</g>
<!-- Node5 -->
<g id="Node000005" class="node">
<title>Node5</title>
<g id="a_Node000005"><a xlink:href="crc32__helpers_8h.html" target="_top" xlink:title="CRC32 accumulation over canonical on&#45;disk encodings.">
<polygon fill="white" stroke="#666666" points="226.62,-188 141.62,-188 141.62,-168 226.62,-168 226.62,-188"/>
<text xml:space="preserve" text-anchor="middle" x="184.12" y="-174.5" font-family="Helvetica,sans-Serif" font-size="10.00">crc32_helpers.h</text>
</a>
</g>
</g>
<!-- Node1&#45;&gt;Node5 -->
<g id="edge6_Node000001_Node000005" class="edge">
<title>Node1&#45;&gt;Node5</title>
<g id="a_edge6_Node000001_Node000005"><a xlink:title=" ">
<path fill="none" stroke="#63b8ff" d="M154.39,-223.59C159.14,-216.47 165.82,-206.45 171.65,-197.72"/>
<polygon fill="#63b8ff" stroke="#63b8ff" points="174.45,-199.82 177.08,-189.56 168.63,-195.94 174.45,-199.82"/>
</a>
</g>
</g>
<!-- Node6 -->
<g id="Node000006" class="node">
<title>Node6</title>
<g id="a_Node000006"><a xlink:href="endian__io_8h.html" target="_top" xlink:title="Canonical little&#45;endian encoding and block&#45;aware file I/O.">
<polygon fill="white" stroke="#666666" points="214.87,-132 149.37,-132 149.37,-112 214.87,-112 214.87,-132"/>
<text xml:space="preserve" text-anchor="middle" x="182.12" y="-118.5" font-family="Helvetica,sans-Serif" font-size="10.00">endian_io.h</text>
</a>
</g>
</g>
<!-- Node1&#45;&gt;Node6 -->
<g id="edge11_Node000001_Node000006" class="edge">
<title>Node1&#45;&gt;Node6</title>
<g id="a_edge11_Node000001_Node000006"><a xlink:title=" ">
<path fill="none" stroke="#63b8ff" d="M186.23,-223.6C204.7,-216.91 225.2,-205.86 236.12,-188 247.34,-169.67 228.04,-151.04 209.48,-138.45"/>
<polygon fill="#63b8ff" stroke="#63b8ff" points="211.6,-135.65 201.28,-133.26 207.86,-141.57 211.6,-135.65"/>
</a>
</g>
</g>
<!-- Node7 -->
<g id="Node000007" class="node">
<title>Node7</title>
<g id="a_Node000007"><a xlink:href="sstable__entities_8h.html" target="_top" xlink:title="Shared constants and section types for SSTable format version 1.">
<polygon fill="white" stroke="#666666" points="375.37,-188 282.87,-188 282.87,-168 375.37,-168 375.37,-188"/>
<text xml:space="preserve" text-anchor="middle" x="329.12" y="-174.5" font-family="Helvetica,sans-Serif" font-size="10.00">sstable_entities.h</text>
</a>
</g>
</g>
<!-- Node1&#45;&gt;Node7 -->
<g id="edge12_Node000001_Node000007" class="edge">
<title>Node1&#45;&gt;Node7</title>
<g id="a_edge12_Node000001_Node000007"><a xlink:title=" ">
<path fill="none" stroke="#63b8ff" d="M179.65,-223.59C209.32,-214.74 253.95,-201.43 286.73,-191.65"/>
<polygon fill="#63b8ff" stroke="#63b8ff" points="287.32,-195.13 295.9,-188.91 285.32,-188.42 287.32,-195.13"/>
</a>
</g>
</g>
<!-- Node3&#45;&gt;Node2 -->
<g id="edge3_Node000003_Node000002" class="edge">
<title>Node3&#45;&gt;Node2</title>
<g id="a_edge3_Node000003_Node000002"><a xlink:title=" ">
<path fill="none" stroke="#63b8ff" d="M53.85,-111.62C59,-93.92 70.25,-55.24 77.21,-31.32"/>
<polygon fill="#63b8ff" stroke="#63b8ff" points="80.55,-32.39 79.98,-21.81 73.82,-30.43 80.55,-32.39"/>
</a>
</g>
</g>
<!-- Node3&#45;&gt;Node4 -->
<g id="edge4_Node000003_Node000004" class="edge">
<title>Node3&#45;&gt;Node4</title>
<g id="a_edge4_Node000003_Node000004"><a xlink:title=" ">
<path fill="none" stroke="#63b8ff" d="M61.57,-111.59C70.09,-103.93 82.33,-92.91 92.52,-83.75"/>
<polygon fill="#63b8ff" stroke="#63b8ff" points="94.57,-86.6 99.67,-77.31 89.89,-81.4 94.57,-86.6"/>
</a>
</g>
</g>
<!-- Node4&#45;&gt;Node2 -->
<g id="edge5_Node000004_Node000002" class="edge">
<title>Node4&#45;&gt;Node2</title>
<g id="a_edge5_Node000004_Node000002"><a xlink:title=" ">
<path fill="none" stroke="#63b8ff" d="M106.25,-55.59C102.63,-48.63 97.58,-38.89 93.12,-30.29"/>
<polygon fill="#63b8ff" stroke="#63b8ff" points="96.35,-28.91 88.64,-21.64 90.14,-32.13 96.35,-28.91"/>
</a>
</g>
</g>
<!-- Node5&#45;&gt;Node6 -->
<g id="edge7_Node000005_Node000006" class="edge">
<title>Node5&#45;&gt;Node6</title>
<g id="a_edge7_Node000005_Node000006"><a xlink:title=" ">
<path fill="none" stroke="#63b8ff" d="M183.77,-167.59C183.53,-161.01 183.2,-151.96 182.89,-143.73"/>
<polygon fill="#63b8ff" stroke="#63b8ff" points="186.39,-143.67 182.52,-133.81 179.4,-143.93 186.39,-143.67"/>
</a>
</g>
</g>
<!-- Node6&#45;&gt;Node2 -->
<g id="edge9_Node000006_Node000002" class="edge">
<title>Node6&#45;&gt;Node2</title>
<g id="a_edge9_Node000006_Node000002"><a xlink:title=" ">
<path fill="none" stroke="#63b8ff" d="M177.1,-111.53C169.8,-98.27 155.35,-73.8 139.12,-56 129.34,-45.27 116.88,-35 106.2,-26.98"/>
<polygon fill="#63b8ff" stroke="#63b8ff" points="108.39,-24.25 98.24,-21.2 104.27,-29.91 108.39,-24.25"/>
</a>
</g>
</g>
<!-- Node6&#45;&gt;Node4 -->
<g id="edge8_Node000006_Node000004" class="edge">
<title>Node6&#45;&gt;Node4</title>
<g id="a_edge8_Node000006_Node000004"><a xlink:title=" ">
<path fill="none" stroke="#63b8ff" d="M169.76,-111.59C159.47,-103.77 144.6,-92.46 132.41,-83.19"/>
<polygon fill="#63b8ff" stroke="#63b8ff" points="134.63,-80.48 124.55,-77.21 130.39,-86.05 134.63,-80.48"/>
</a>
</g>
</g>
</g>
</svg>
</svg>

<style type='text/css'>
<![CDATA[
[data-mouse-over-selected='false'] { opacity: 0.7; }
[data-mouse-over-selected='true']  { opacity: 1.0; }
]]>
</style>
<script type="application/ecmascript"><![CDATA[
document.addEventListener('DOMContentLoaded', (event) => {
  highlightEdges();
  highlightAdjacentNodes();
});
]]></script>
</svg>
