<?xml version="1.0" encoding="UTF-8" standalone="no"?>
<!DOCTYPE svg PUBLIC "-//W3C//DTD SVG 1.1//EN"
 "http://www.w3.org/Graphics/SVG/1.1/DTD/svg11.dtd">
<!-- Generated by graphviz version 15.1.0 (20260618.0150)
 -->
<!-- Title: index_section.h Pages: 1 -->
<svg width="422pt" height="252pt"
 viewBox="0.00 0.00 422.00 252.00" xmlns="http://www.w3.org/2000/svg" xmlns:xlink="http://www.w3.org/1999/xlink">
<g id="graph0" class="graph" transform="scale(1 1) rotate(0) translate(4 248)">
<title>index_section.h</title>
<!-- Node1 -->
<g id="Node000001" class="node">
<title>Node1</title>
<g id="a_Node000001"><a xlink:title="Data&#45;block key ranges and offsets for bounded SSTable lookup.">
<polygon fill="#999999" stroke="#666666" points="260.25,-244 176,-244 176,-224 260.25,-224 260.25,-244"/>
<text xml:space="preserve" text-anchor="middle" x="218.12" y="-230.5" font-family="Helvetica,sans-Serif" font-size="10.00">index_section.h</text>
</a>
</g>
</g>
<!-- Node2 -->
<g id="Node000002" class="node">
<title>Node2</title>
<g id="a_Node000002"><a xlink:href="arena_8h.html" target="_top" xlink:title="Page&#45;based region allocation and arena&#45;owned object lifetime support.">
<polygon fill="white" stroke="#666666" points="48.25,-76 0,-76 0,-56 48.25,-56 48.25,-76"/>
<text xml:space="preserve" text-anchor="middle" x="24.12" y="-62.5" font-family="Helvetica,sans-Serif" font-size="10.00">arena.h</text>
</a>
</g>
</g>
<!-- Node1&#45;&gt;Node2 -->
<g id="edge1_Node000001_Node000002" class="edge">
<title>Node1&#45;&gt;Node2</title>
<g id="a_edge1_Node000001_Node000002"><a xlink:title=" ">
<path fill="none" stroke="#63b8ff" d="M175.59,-231.44C140.73,-227.92 92.37,-217.54 62.12,-188 34.65,-161.16 26.97,-114.71 24.87,-87.84"/>
<polygon fill="#63b8ff" stroke="#63b8ff" points="28.37,-87.69 24.31,-77.91 21.38,-88.09 28.37,-87.69"/>
</a>
</g>
</g>
<!-- Node3 -->
<g id="Node000003" class="node">
<title>Node3</title>
<g id="a_Node000003"><a xlink:href="status_8h.html" target="_top" xlink:title="Provides classes, types and utilities for error handling.">
<polygon fill="white" stroke="#666666" points="220.75,-20 169.5,-20 169.5,0 220.75,0 220.75,-20"/>
<text xml:space="preserve" text-anchor="middle" x="195.12" y="-6.5" font-family="Helvetica,sans-Serif" font-size="10.00">status.h</text>
</a>
</g>
</g>
<!-- Node1&#45;&gt;Node3 -->
<g id="edge14_Node000001_Node000003" class="edge">
<title>Node1&#45;&gt;Node3</title>
<g id="a_edge14_Node000001_Node000003"><a xlink:title=" ">
<path fill="none" stroke="#63b8ff" d="M175.61,-229.42C148,-224.64 113.94,-213.56 96.12,-188 57.08,-131.98 134.02,-59.25 173.61,-27.28"/>
<polygon fill="#63b8ff" stroke="#63b8ff" points="175.46,-30.28 181.15,-21.34 171.13,-24.78 175.46,-30.28"/>
</a>
</g>
</g>
<!-- Node4 -->
<g id="Node000004" class="node">
<title>Node4</title>
<g id="a_Node000004"><a xlink:href="crc32__helpers_8h.html" target="_top" xlink:title="CRC32 accumulation over canonical on&#45;disk encodings.">
<polygon fill="white" stroke="#666666" points="189.62,-188 104.62,-188 104.62,-168 189.62,-168 189.62,-188"/>
<text xml:space="preserve" text-anchor="middle" x="147.12" y="-174.5" font-family="Helvetica,sans-Serif" font-size="10.00">crc32_helpers.h</text>
</a>
</g>
</g>
<!-- Node1&#45;&gt;Node4 -->
<g id="edge3_Node000001_Node000004" class="edge">
<title>Node1&#45;&gt;Node4</title>
<g id="a_edge3_Node000001_Node000004"><a xlink:title=" ">
<path fill="none" stroke="#63b8ff" d="M205.76,-223.59C195.48,-215.77 180.61,-204.46 168.41,-195.19"/>
<polygon fill="#63b8ff" stroke="#63b8ff" points="170.63,-192.48 160.56,-189.21 166.4,-198.05 170.63,-192.48"/>
</a>
</g>
</g>
<!-- Node5 -->
<g id="Node000005" class="node">
<title>Node5</title>
<g id="a_Node000005"><a xlink:href="endian__io_8h.html" target="_top" xlink:title="Canonical little&#45;endian encoding and block&#45;aware file I/O.">
<polygon fill="white" stroke="#666666" points="227.88,-132 162.38,-132 162.38,-112 227.88,-112 227.88,-132"/>
<text xml:space="preserve" text-anchor="middle" x="195.12" y="-118.5" font-family="Helvetica,sans-Serif" font-size="10.00">endian_io.h</text>
</a>
</g>
</g>
<!-- Node1&#45;&gt;Node5 -->
<g id="edge8_Node000001_Node000005" class="edge">
<title>Node1&#45;&gt;Node5</title>
<g id="a_edge8_Node000001_Node000005"><a xlink:title=" ">
<path fill="none" stroke="#63b8ff" d="M216.16,-223.62C212.46,-205.92 204.37,-167.24 199.37,-143.32"/>
<polygon fill="#63b8ff" stroke="#63b8ff" points="202.86,-142.91 197.39,-133.84 196.01,-144.34 202.86,-142.91"/>
</a>
</g>
</g>
<!-- Node6 -->
<g id="Node000006" class="node">
<title>Node6</title>
<g id="a_Node000006"><a xlink:href="file_8h.html" target="_top" xlink:title="Provides platform&#45;specific wrappers around OS file and directory system calls.">
<polygon fill="white" stroke="#666666" points="267.62,-76 230.62,-76 230.62,-56 267.62,-56 267.62,-76"/>
<text xml:space="preserve" text-anchor="middle" x="249.12" y="-62.5" font-family="Helvetica,sans-Serif" font-size="10.00">file.h</text>
</a>
</g>
</g>
<!-- Node1&#45;&gt;Node6 -->
<g id="edge9_Node000001_Node000006" class="edge">
<title>Node1&#45;&gt;Node6</title>
<g id="a_edge9_Node000001_Node000006"><a xlink:title=" ">
<path fill="none" stroke="#63b8ff" d="M219.92,-223.53C223.3,-205.65 230.85,-165.68 237.12,-132 239.9,-117.11 243,-100.29 245.36,-87.5"/>
<polygon fill="#63b8ff" stroke="#63b8ff" points="248.79,-88.22 247.15,-77.75 241.9,-86.95 248.79,-88.22"/>
</a>
</g>
</g>
<!-- Node7 -->
<g id="Node000007" class="node">
<title>Node7</title>
<g id="a_Node000007"><a xlink:href="file__helpers_8h.html" target="_top" xlink:title="Bounds checks, alignment, and padding for block&#45;structured files.">
<polygon fill="white" stroke="#666666" points="358,-132 284.25,-132 284.25,-112 358,-112 358,-132"/>
<text xml:space="preserve" text-anchor="middle" x="321.12" y="-118.5" font-family="Helvetica,sans-Serif" font-size="10.00">file_helpers.h</text>
</a>
</g>
</g>
<!-- Node1&#45;&gt;Node7 -->
<g id="edge10_Node000001_Node000007" class="edge">
<title>Node1&#45;&gt;Node7</title>
<g id="a_edge10_Node000001_Node000007"><a xlink:title=" ">
<path fill="none" stroke="#63b8ff" d="M230.27,-223.6C241.2,-214.89 257.44,-201.31 270.12,-188 284.16,-173.27 298.3,-154.91 308.12,-141.46"/>
<polygon fill="#63b8ff" stroke="#63b8ff" points="310.84,-143.67 313.83,-133.51 305.15,-139.59 310.84,-143.67"/>
</a>
</g>
</g>
<!-- Node8 -->
<g id="Node000008" class="node">
<title>Node8</title>
<g id="a_Node000008"><a xlink:href="sstable__entities_8h.html" target="_top" xlink:title="Shared constants and section types for SSTable format version 1.">
<polygon fill="white" stroke="#666666" points="414.38,-188 321.88,-188 321.88,-168 414.38,-168 414.38,-188"/>
<text xml:space="preserve" text-anchor="middle" x="368.12" y="-174.5" font-family="Helvetica,sans-Serif" font-size="10.00">sstable_entities.h</text>
</a>
</g>
</g>
<!-- Node1&#45;&gt;Node8 -->
<g id="edge13_Node000001_Node000008" class="edge">
<title>Node1&#45;&gt;Node8</title>
<g id="a_edge13_Node000001_Node000008"><a xlink:title=" ">
<path fill="none" stroke="#63b8ff" d="M244.25,-223.59C268.3,-214.94 304.23,-202 331.21,-192.29"/>
<polygon fill="#63b8ff" stroke="#63b8ff" points="332.15,-195.67 340.37,-188.99 329.77,-189.09 332.15,-195.67"/>
</a>
</g>
</g>
<!-- Node2&#45;&gt;Node3 -->
<g id="edge2_Node000002_Node000003" class="edge">
<title>Node2&#45;&gt;Node3</title>
<g id="a_edge2_Node000002_Node000003"><a xlink:title=" ">
<path fill="none" stroke="#63b8ff" d="M48.63,-57.26C77.42,-48.17 125.46,-33 158.64,-22.52"/>
<polygon fill="#63b8ff" stroke="#63b8ff" points="159.35,-25.97 167.83,-19.62 157.24,-19.29 159.35,-25.97"/>
</a>
</g>
</g>
<!-- Node4&#45;&gt;Node5 -->
<g id="edge4_Node000004_Node000005" class="edge">
<title>Node4&#45;&gt;Node5</title>
<g id="a_edge4_Node000004_Node000005"><a xlink:title=" ">
<path fill="none" stroke="#63b8ff" d="M155.49,-167.59C162.02,-160.24 171.31,-149.8 179.24,-140.87"/>
<polygon fill="#63b8ff" stroke="#63b8ff" points="181.83,-143.23 185.85,-133.43 176.59,-138.58 181.83,-143.23"/>
</a>
</g>
</g>
<!-- Node5&#45;&gt;Node3 -->
<g id="edge7_Node000005_Node000003" class="edge">
<title>Node5&#45;&gt;Node3</title>
<g id="a_edge7_Node000005_Node000003"><a xlink:title=" ">
<path fill="none" stroke="#63b8ff" d="M195.12,-111.62C195.12,-94.01 195.12,-55.59 195.12,-31.65"/>
<polygon fill="#63b8ff" stroke="#63b8ff" points="198.63,-31.87 195.13,-21.87 191.63,-31.87 198.63,-31.87"/>
</a>
</g>
</g>
<!-- Node5&#45;&gt;Node6 -->
<g id="edge5_Node000005_Node000006" class="edge">
<title>Node5&#45;&gt;Node6</title>
<g id="a_edge5_Node000005_Node000006"><a xlink:title=" ">
<path fill="none" stroke="#63b8ff" d="M204.53,-111.59C212.04,-104.08 222.77,-93.35 231.82,-84.3"/>
<polygon fill="#63b8ff" stroke="#63b8ff" points="234.16,-86.91 238.76,-77.37 229.21,-81.96 234.16,-86.91"/>
</a>
</g>
</g>
<!-- Node6&#45;&gt;Node3 -->
<g id="edge6_Node000006_Node000003" class="edge">
<title>Node6&#45;&gt;Node3</title>
<g id="a_edge6_Node000006_Node000003"><a xlink:title=" ">
<path fill="none" stroke="#63b8ff" d="M239.72,-55.59C232.21,-48.08 221.48,-37.35 212.43,-28.3"/>
<polygon fill="#63b8ff" stroke="#63b8ff" points="215.04,-25.96 205.49,-21.37 210.09,-30.91 215.04,-25.96"/>
</a>
</g>
</g>
<!-- Node7&#45;&gt;Node3 -->
<g id="edge11_Node000007_Node000003" class="edge">
<title>Node7&#45;&gt;Node3</title>
<g id="a_edge11_Node000007_Node000003"><a xlink:title=" ">
<path fill="none" stroke="#63b8ff" d="M316.59,-111.58C309.64,-97.94 295.26,-72.52 277.12,-56 263.18,-43.29 245,-32.85 229.3,-25.24"/>
<polygon fill="#63b8ff" stroke="#63b8ff" points="230.83,-22.09 220.29,-21.06 227.89,-28.44 230.83,-22.09"/>
</a>
</g>
</g>
<!-- Node7&#45;&gt;Node6 -->
<g id="edge12_Node000007_Node000006" class="edge">
<title>Node7&#45;&gt;Node6</title>
<g id="a_edge12_Node000007_Node000006"><a xlink:title=" ">
<path fill="none" stroke="#63b8ff" d="M308.58,-111.59C298.16,-103.77 283.08,-92.46 270.71,-83.19"/>
<polygon fill="#63b8ff" stroke="#63b8ff" points="272.83,-80.41 262.73,-77.21 268.63,-86.01 272.83,-80.41"/>
</a>
</g>
</g>
</g>
</svg>
