<?xml version="1.0" encoding="UTF-8" standalone="no"?>
<!DOCTYPE svg PUBLIC "-//W3C//DTD SVG 1.1//EN"
 "http://www.w3.org/Graphics/SVG/1.1/DTD/svg11.dtd">
<!-- Generated by graphviz version 15.1.0 (20260618.0150)
 -->
<!-- Title: sstable_iterator.h Pages: 1 -->
<!--zoomable 512 -->

<svg id="main" version="1.1" xmlns="http://www.w3.org/2000/svg" xmlns:xlink="http://www.w3.org/1999/xlink" xml:space="preserve" onload="init(evt)">

<style type="text/css"><![CDATA[
.node, .edge {opacity: 0.7;}
.node.selected, .edge.selected {opacity: 1;}
.edge:hover path { stroke: red; }
.edge:hover polygon { stroke: red; fill: red; }
]]></style>

<defs>
  <circle id="rim" cx="0" cy="0" r="7"/>
  <circle id="rim2" cx="0" cy="0" r="3.5"/>
  <g id="zoomPlus">
    <use xlink:href="#rim" fill="#404040"><set attributeName="fill" to="#808080" begin="zoomplus.mouseover" end="zoomplus.mouseout"/></use>
    <path d="M-4,0h8M0,-4v8" fill="none" stroke="white" stroke-width="1.5" pointer-events="none"/>
  </g>
  <g id="zoomMin">
    <use xlink:href="#rim" fill="#404040"><set attributeName="fill" to="#808080" begin="zoomminus.mouseover" end="zoomminus.mouseout"/></use>
    <path d="M-4,0h8" fill="none" stroke="white" stroke-width="1.5" pointer-events="none"/>
  </g>
  <g id="arrowUp" transform="translate(30 24)">
    <use xlink:href="#rim"/>
    <path pointer-events="none" fill="none" stroke="white" stroke-width="1.5" d="M0,-3.0v7 M-2.5,-0.5L0,-3.0L2.5,-0.5"/>
  </g>
  <g id="arrowRight" transform="rotate(90) translate(36 -43)">
    <use xlink:href="#rim"/>
    <path pointer-events="none" fill="none" stroke="white" stroke-width="1.5" d="M0,-3.0v7 M-2.5,-0.5L0,-3.0L2.5,-0.5"/>
  </g>
  <g id="arrowDown" transform="rotate(180) translate(-30 -48)">
    <use xlink:href="#rim"/>
    <path pointer-events="none" fill="none" stroke="white" stroke-width="1.5" d="M0,-3.0v7 M-2.5,-0.5L0,-3.0L2.5,-0.5"/>
  </g>
  <g id="arrowLeft" transform="rotate(270) translate(-36 17)">
    <use xlink:href="#rim"/>
    <path pointer-events="none" fill="none" stroke="white" stroke-width="1.5" d="M0,-3.0v7 M-2.5,-0.5L0,-3.0L2.5,-0.5"/>
  </g>
  <g id="resetDef">
    <use xlink:href="#rim2" fill="#404040"><set attributeName="fill" to="#808080" begin="reset.mouseover" end="reset.mouseout"/></use>
  </g>
</defs>
<script type="application/ecmascript">
var viewWidth = 1590;
var viewHeight = 512;
var sectionId = 'dynsection-0';
</script>
<script type="application/ecmascript" xlink:href="svg.min.js"/>
<svg id="graph" class="graph">
<g id="viewport">
<title>sstable_iterator.h</title>
<!-- Node1 -->
<g id="Node000001" class="node">
<title>Node1</title>
<g id="a_Node000001"><a xlink:title="Forward record cursor over a validated SSTable data section.">
<polygon fill="#999999" stroke="#666666" points="600.5,-504 509.5,-504 509.5,-484 600.5,-484 600.5,-504"/>
<text xml:space="preserve" text-anchor="middle" x="555" y="-490.5" font-family="Helvetica,sans-Serif" font-size="10.00">sstable_iterator.h</text>
</a>
</g>
</g>
<!-- Node2 -->
<g id="Node000002" class="node">
<title>Node2</title>
<g id="a_Node000002"><a xlink:href="arena_8h.html" target="_top" xlink:title="Page&#45;based region allocation and arena&#45;owned object lifetime support.">
<polygon fill="white" stroke="#666666" points="1280.12,-188 1231.88,-188 1231.88,-168 1280.12,-168 1280.12,-188"/>
<text xml:space="preserve" text-anchor="middle" x="1256" y="-174.5" font-family="Helvetica,sans-Serif" font-size="10.00">arena.h</text>
</a>
</g>
</g>
<!-- Node1&#45;&gt;Node2 -->
<g id="edge1_Node000001_Node000002" class="edge">
<title>Node1&#45;&gt;Node2</title>
<g id="a_edge1_Node000001_Node000002"><a xlink:title=" ">
<path fill="none" stroke="#63b8ff" d="M600.72,-492.51C795.22,-489.83 1544,-473.27 1544,-377 1544,-377 1544,-377 1544,-307 1544,-245.4 1488.59,-250.54 1433,-224 1386.79,-201.93 1328.43,-189.8 1291.65,-183.85"/>
<polygon fill="#63b8ff" stroke="#63b8ff" points="1292.42,-180.42 1282,-182.36 1291.35,-187.34 1292.42,-180.42"/>
</a>
</g>
</g>
<!-- Node3 -->
<g id="Node000003" class="node">
<title>Node3</title>
<g id="a_Node000003"><a xlink:href="status_8h.html" target="_top" xlink:title="Provides classes, types and utilities for error handling.">
<polygon fill="white" stroke="#666666" points="795.62,-20 744.38,-20 744.38,0 795.62,0 795.62,-20"/>
<text xml:space="preserve" text-anchor="middle" x="770" y="-6.5" font-family="Helvetica,sans-Serif" font-size="10.00">status.h</text>
</a>
</g>
</g>
<!-- Node1&#45;&gt;Node3 -->
<g id="edge3_Node000001_Node000003" class="edge">
<title>Node1&#45;&gt;Node3</title>
<g id="a_edge3_Node000001_Node000003"><a xlink:title=" ">
<path fill="none" stroke="#63b8ff" d="M509.38,-492.35C405.53,-490.29 154.55,-481.84 78,-448 35.13,-429.05 0,-423.88 0,-377 0,-377 0,-377 0,-121 0,-46.07 578.88,-18.38 732.79,-12.34"/>
<polygon fill="#63b8ff" stroke="#63b8ff" points="732.57,-15.85 742.43,-11.97 732.3,-8.86 732.57,-15.85"/>
</a>
</g>
</g>
<!-- Node4 -->
<g id="Node000004" class="node">
<title>Node4</title>
<g id="a_Node000004"><a xlink:href="sstable_8h.html" target="_top" xlink:title="Immutable sorted&#45;table aggregate, lookup path, and file lifecycle.">
<polygon fill="white" stroke="#666666" points="794.88,-448 739.12,-448 739.12,-428 794.88,-428 794.88,-448"/>
<text xml:space="preserve" text-anchor="middle" x="767" y="-434.5" font-family="Helvetica,sans-Serif" font-size="10.00">sstable.h</text>
</a>
</g>
</g>
<!-- Node1&#45;&gt;Node4 -->
<g id="edge4_Node000001_Node000004" class="edge">
<title>Node1&#45;&gt;Node4</title>
<g id="a_edge4_Node000001_Node000004"><a xlink:title=" ">
<path fill="none" stroke="#63b8ff" d="M591.93,-483.59C629.93,-473.91 688.92,-458.89 727.76,-449"/>
<polygon fill="#63b8ff" stroke="#63b8ff" points="728.34,-452.46 737.16,-446.6 726.61,-445.68 728.34,-452.46"/>
</a>
</g>
</g>
<!-- Node8 -->
<g id="Node000008" class="node">
<title>Node8</title>
<g id="a_Node000008"><a xlink:href="file_8h.html" target="_top" xlink:title="Provides platform&#45;specific wrappers around OS file and directory system calls.">
<polygon fill="white" stroke="#666666" points="733.5,-76 696.5,-76 696.5,-56 733.5,-56 733.5,-76"/>
<text xml:space="preserve" text-anchor="middle" x="715" y="-62.5" font-family="Helvetica,sans-Serif" font-size="10.00">file.h</text>
</a>
</g>
</g>
<!-- Node1&#45;&gt;Node8 -->
<g id="edge75_Node000001_Node000008" class="edge">
<title>Node1&#45;&gt;Node8</title>
<g id="a_edge75_Node000001_Node000008"><a xlink:title=" ">
<path fill="none" stroke="#63b8ff" d="M509.12,-492.43C382.59,-489.61 38,-473.13 38,-377 38,-377 38,-377 38,-177 38,-110.46 554.12,-76.26 685.08,-68.65"/>
<polygon fill="#63b8ff" stroke="#63b8ff" points="684.89,-72.17 694.68,-68.1 684.49,-65.18 684.89,-72.17"/>
</a>
</g>
</g>
<!-- Node9 -->
<g id="Node000009" class="node">
<title>Node9</title>
<g id="a_Node000009"><a xlink:href="file__helpers_8h.html" target="_top" xlink:title="Bounds checks, alignment, and padding for block&#45;structured files.">
<polygon fill="white" stroke="#666666" points="440.88,-188 367.12,-188 367.12,-168 440.88,-168 440.88,-188"/>
<text xml:space="preserve" text-anchor="middle" x="404" y="-174.5" font-family="Helvetica,sans-Serif" font-size="10.00">file_helpers.h</text>
</a>
</g>
</g>
<!-- Node1&#45;&gt;Node9 -->
<g id="edge76_Node000001_Node000009" class="edge">
<title>Node1&#45;&gt;Node9</title>
<g id="a_edge76_Node000001_Node000009"><a xlink:title=" ">
<path fill="none" stroke="#63b8ff" d="M509.03,-493.2C431.71,-490.86 284,-473.73 284,-377 284,-377 284,-377 284,-307 284,-254.19 339.05,-214.2 374.57,-193.89"/>
<polygon fill="#63b8ff" stroke="#63b8ff" points="376.05,-197.07 383.13,-189.18 372.68,-190.94 376.05,-197.07"/>
</a>
</g>
</g>
<!-- Node14 -->
<g id="Node000014" class="node">
<title>Node14</title>
<g id="a_Node000014"><a xlink:href="record_8h.html" target="_top" xlink:title="User&#45;facing and versioned internal record representations.">
<polygon fill="white" stroke="#666666" points="1335.62,-250 1284.38,-250 1284.38,-230 1335.62,-230 1335.62,-250"/>
<text xml:space="preserve" text-anchor="middle" x="1310" y="-236.5" font-family="Helvetica,sans-Serif" font-size="10.00">record.h</text>
</a>
</g>
</g>
<!-- Node1&#45;&gt;Node14 -->
<g id="edge74_Node000001_Node000014" class="edge">
<title>Node1&#45;&gt;Node14</title>
<g id="a_edge74_Node000001_Node000014"><a xlink:title=" ">
<path fill="none" stroke="#63b8ff" d="M600.92,-491.22C773.61,-484.07 1377.06,-454.74 1433,-392 1442.46,-381.38 1439.6,-372.6 1433,-360 1419.95,-335.1 1401.86,-342.84 1381,-324 1358.67,-303.84 1336.76,-276.8 1323.31,-259.14"/>
<polygon fill="#63b8ff" stroke="#63b8ff" points="1326.47,-257.52 1317.67,-251.61 1320.87,-261.71 1326.47,-257.52"/>
</a>
</g>
</g>
<!-- Node2&#45;&gt;Node3 -->
<g id="edge2_Node000002_Node000003" class="edge">
<title>Node2&#45;&gt;Node3</title>
<g id="a_edge2_Node000002_Node000003"><a xlink:title=" ">
<path fill="none" stroke="#63b8ff" d="M1254.35,-167.77C1249.65,-144.5 1233.9,-83.38 1194,-56 1131.72,-13.25 899.27,-10.06 807.55,-10.53"/>
<polygon fill="#63b8ff" stroke="#63b8ff" points="807.57,-7.03 797.59,-10.6 807.62,-14.03 807.57,-7.03"/>
</a>
</g>
</g>
<!-- Node4&#45;&gt;Node3 -->
<g id="edge73_Node000004_Node000003" class="edge">
<title>Node4&#45;&gt;Node3</title>
<g id="a_edge73_Node000004_Node000003"><a xlink:title=" ">
<path fill="none" stroke="#63b8ff" d="M795.3,-436.43C914.96,-433.84 1375.93,-421.97 1433,-392 1478.87,-367.91 1582,-206.75 1582,-179 1582,-179 1582,-179 1582,-121 1582,-41.72 966.29,-17.1 807.17,-12.06"/>
<polygon fill="#63b8ff" stroke="#63b8ff" points="807.71,-8.58 797.61,-11.77 807.5,-15.58 807.71,-8.58"/>
</a>
</g>
</g>
<!-- Node5 -->
<g id="Node000005" class="node">
<title>Node5</title>
<g id="a_Node000005"><a xlink:href="_murmur_hash3_8h_source.html" target="_top" xlink:title=" ">
<polygon fill="white" stroke="#666666" points="694.88,-386 609.12,-386 609.12,-366 694.88,-366 694.88,-386"/>
<text xml:space="preserve" text-anchor="middle" x="652" y="-372.5" font-family="Helvetica,sans-Serif" font-size="10.00">MurmurHash3.h</text>
</a>
</g>
</g>
<!-- Node4&#45;&gt;Node5 -->
<g id="edge5_Node000004_Node000005" class="edge">
<title>Node4&#45;&gt;Node5</title>
<g id="a_edge5_Node000004_Node000005"><a xlink:title=" ">
<path fill="none" stroke="#63b8ff" d="M749.03,-427.62C730.55,-417.98 701.51,-402.83 680.01,-391.61"/>
<polygon fill="#63b8ff" stroke="#63b8ff" points="681.67,-388.53 671.18,-387.01 678.43,-394.74 681.67,-388.53"/>
</a>
</g>
</g>
<!-- Node6 -->
<g id="Node000006" class="node">
<title>Node6</title>
<g id="a_Node000006"><a xlink:href="crc32__helpers_8h.html" target="_top" xlink:title="CRC32 accumulation over canonical on&#45;disk encodings.">
<polygon fill="white" stroke="#666666" points="1037.5,-188 952.5,-188 952.5,-168 1037.5,-168 1037.5,-188"/>
<text xml:space="preserve" text-anchor="middle" x="995" y="-174.5" font-family="Helvetica,sans-Serif" font-size="10.00">crc32_helpers.h</text>
</a>
</g>
</g>
<!-- Node4&#45;&gt;Node6 -->
<g id="edge6_Node000004_Node000006" class="edge">
<title>Node4&#45;&gt;Node6</title>
<g id="a_edge6_Node000004_Node000006"><a xlink:title=" ">
<path fill="none" stroke="#63b8ff" d="M795.15,-434.19C827.91,-429.76 882.42,-418.73 921,-392 984.85,-347.77 994.18,-244.15 995.14,-199.77"/>
<polygon fill="#63b8ff" stroke="#63b8ff" points="998.64,-200.01 995.22,-189.99 991.64,-199.96 998.64,-200.01"/>
</a>
</g>
</g>
<!-- Node7 -->
<g id="Node000007" class="node">
<title>Node7</title>
<g id="a_Node000007"><a xlink:href="endian__io_8h.html" target="_top" xlink:title="Canonical little&#45;endian encoding and block&#45;aware file I/O.">
<polygon fill="white" stroke="#666666" points="903.75,-132 838.25,-132 838.25,-112 903.75,-112 903.75,-132"/>
<text xml:space="preserve" text-anchor="middle" x="871" y="-118.5" font-family="Helvetica,sans-Serif" font-size="10.00">endian_io.h</text>
</a>
</g>
</g>
<!-- Node4&#45;&gt;Node7 -->
<g id="edge11_Node000004_Node000007" class="edge">
<title>Node4&#45;&gt;Node7</title>
<g id="a_edge11_Node000004_Node000007"><a xlink:title=" ">
<path fill="none" stroke="#63b8ff" d="M795.13,-437.57C869.56,-437.49 1066,-426.17 1066,-309 1066,-309 1066,-309 1066,-239 1066,-206.33 1070.23,-190.97 1047,-168 1028.55,-149.75 961.1,-136.37 915.26,-129.14"/>
<polygon fill="#63b8ff" stroke="#63b8ff" points="916.03,-125.72 905.62,-127.66 914.97,-132.64 916.03,-125.72"/>
</a>
</g>
</g>
<!-- Node4&#45;&gt;Node8 -->
<g id="edge12_Node000004_Node000008" class="edge">
<title>Node4&#45;&gt;Node8</title>
<g id="a_edge12_Node000004_Node000008"><a xlink:title=" ">
<path fill="none" stroke="#63b8ff" d="M738.7,-436.68C660.95,-435.33 445.97,-428.32 387,-392 325.29,-353.99 317.89,-325.41 297,-256 283.29,-210.43 316.95,-192.08 358,-168 467.87,-103.56 621.03,-78.41 685.03,-70.3"/>
<polygon fill="#63b8ff" stroke="#63b8ff" points="685.25,-73.8 694.76,-69.12 684.41,-66.85 685.25,-73.8"/>
</a>
</g>
</g>
<!-- Node4&#45;&gt;Node9 -->
<g id="edge13_Node000004_Node000009" class="edge">
<title>Node4&#45;&gt;Node9</title>
<g id="a_edge13_Node000004_Node000009"><a xlink:title=" ">
<path fill="none" stroke="#63b8ff" d="M738.84,-436.13C667.93,-433.47 484.03,-423.64 433,-392 370.98,-353.55 362.38,-325.77 341,-256 336.83,-242.4 334.49,-236.65 341,-224 347.63,-211.11 359.85,-201.1 371.78,-193.83"/>
<polygon fill="#63b8ff" stroke="#63b8ff" points="373.24,-197.02 380.27,-189.09 369.83,-190.9 373.24,-197.02"/>
</a>
</g>
</g>
<!-- Node10 -->
<g id="Node000010" class="node">
<title>Node10</title>
<g id="a_Node000010"><a xlink:href="mem__table_8h.html" target="_top" xlink:title="Mutable and immutable in&#45;memory generations for recent records.">
<polygon fill="white" stroke="#666666" points="1424.12,-386 1351.88,-386 1351.88,-366 1424.12,-366 1424.12,-386"/>
<text xml:space="preserve" text-anchor="middle" x="1388" y="-372.5" font-family="Helvetica,sans-Serif" font-size="10.00">mem_table.h</text>
</a>
</g>
</g>
<!-- Node4&#45;&gt;Node10 -->
<g id="edge16_Node000004_Node000010" class="edge">
<title>Node4&#45;&gt;Node10</title>
<g id="a_edge16_Node000004_Node000010"><a xlink:title=" ">
<path fill="none" stroke="#63b8ff" d="M795.2,-436.89C878.8,-436.12 1132.25,-430.51 1338,-392 1341.65,-391.32 1345.42,-390.47 1349.17,-389.52"/>
<polygon fill="#63b8ff" stroke="#63b8ff" points="1350.06,-392.91 1358.77,-386.88 1348.2,-386.16 1350.06,-392.91"/>
</a>
</g>
</g>
<!-- Node4&#45;&gt;Node14 -->
<g id="edge26_Node000004_Node000014" class="edge">
<title>Node4&#45;&gt;Node14</title>
<g id="a_edge26_Node000004_Node000014"><a xlink:title=" ">
<path fill="none" stroke="#63b8ff" d="M795.33,-436.32C880.66,-433.94 1133.98,-424.26 1209,-392 1251.56,-373.7 1263.41,-363.26 1288,-324 1299.97,-304.89 1305.48,-279.38 1307.98,-261.71"/>
<polygon fill="#63b8ff" stroke="#63b8ff" points="1311.43,-262.28 1309.14,-251.93 1304.48,-261.45 1311.43,-262.28"/>
</a>
</g>
</g>
<!-- Node15 -->
<g id="Node000015" class="node">
<title>Node15</title>
<g id="a_Node000015"><a xlink:href="sstable__entities_8h.html" target="_top" xlink:title="Shared constants and section types for SSTable format version 1.">
<polygon fill="white" stroke="#666666" points="596.25,-188 503.75,-188 503.75,-168 596.25,-168 596.25,-188"/>
<text xml:space="preserve" text-anchor="middle" x="550" y="-174.5" font-family="Helvetica,sans-Serif" font-size="10.00">sstable_entities.h</text>
</a>
</g>
</g>
<!-- Node4&#45;&gt;Node15 -->
<g id="edge27_Node000004_Node000015" class="edge">
<title>Node4&#45;&gt;Node15</title>
<g id="a_edge27_Node000004_Node000015"><a xlink:title=" ">
<path fill="none" stroke="#63b8ff" d="M738.65,-437.49C699.7,-436.66 629.51,-429.55 586,-392 536.51,-349.3 542.69,-320.13 530,-256 527.24,-242.05 527.05,-237.91 530,-224 531.86,-215.23 535.55,-206.1 539.26,-198.38"/>
<polygon fill="#63b8ff" stroke="#63b8ff" points="542.31,-200.1 543.8,-189.61 536.09,-196.88 542.31,-200.1"/>
</a>
</g>
</g>
<!-- Node16 -->
<g id="Node000016" class="node">
<title>Node16</title>
<g id="a_Node000016"><a xlink:href="bloom__section_8h.html" target="_top" xlink:title="Fixed&#45;size Bloom filter section for negative SSTable lookups.">
<polygon fill="white" stroke="#666666" points="179.75,-256 66.25,-256 66.25,-224 179.75,-224 179.75,-256"/>
<text xml:space="preserve" text-anchor="start" x="74.25" y="-242.5" font-family="Helvetica,sans-Serif" font-size="10.00">sstable_entities/bloom</text>
<text xml:space="preserve" text-anchor="middle" x="123" y="-230.5" font-family="Helvetica,sans-Serif" font-size="10.00">_section.h</text>
</a>
</g>
</g>
<!-- Node4&#45;&gt;Node16 -->
<g id="edge28_Node000004_Node000016" class="edge">
<title>Node4&#45;&gt;Node16</title>
<g id="a_edge28_Node000004_Node000016"><a xlink:title=" ">
<path fill="none" stroke="#63b8ff" d="M738.87,-436.43C629.87,-434.01 239.15,-423.21 194,-392 152.01,-362.97 134.18,-302.36 127.15,-267.4"/>
<polygon fill="#63b8ff" stroke="#63b8ff" points="130.62,-266.89 125.37,-257.68 123.73,-268.15 130.62,-266.89"/>
</a>
</g>
</g>
<!-- Node17 -->
<g id="Node000017" class="node">
<title>Node17</title>
<g id="a_Node000017"><a xlink:href="data__section_8h.html" target="_top" xlink:title="In&#45;memory construction model for sorted SSTable data blocks.">
<polygon fill="white" stroke="#666666" points="946,-324 840,-324 840,-292 946,-292 946,-324"/>
<text xml:space="preserve" text-anchor="start" x="848" y="-310.5" font-family="Helvetica,sans-Serif" font-size="10.00">sstable_entities/data</text>
<text xml:space="preserve" text-anchor="middle" x="893" y="-298.5" font-family="Helvetica,sans-Serif" font-size="10.00">_section.h</text>
</a>
</g>
</g>
<!-- Node4&#45;&gt;Node17 -->
<g id="edge32_Node000004_Node000017" class="edge">
<title>Node4&#45;&gt;Node17</title>
<g id="a_edge32_Node000004_Node000017"><a xlink:title=" ">
<path fill="none" stroke="#63b8ff" d="M783.32,-427.55C796.93,-419.21 816.39,-406.2 831,-392 849.12,-374.4 866.01,-351.13 877.58,-333.71"/>
<polygon fill="#63b8ff" stroke="#63b8ff" points="880.41,-335.78 882.92,-325.49 874.54,-331.97 880.41,-335.78"/>
</a>
</g>
</g>
<!-- Node18 -->
<g id="Node000018" class="node">
<title>Node18</title>
<g id="a_Node000018"><a xlink:href="index__section_8h.html" target="_top" xlink:title="Data&#45;block key ranges and offsets for bounded SSTable lookup.">
<polygon fill="white" stroke="#666666" points="730.25,-256 619.75,-256 619.75,-224 730.25,-224 730.25,-256"/>
<text xml:space="preserve" text-anchor="start" x="627.75" y="-242.5" font-family="Helvetica,sans-Serif" font-size="10.00">sstable_entities/index</text>
<text xml:space="preserve" text-anchor="middle" x="675" y="-230.5" font-family="Helvetica,sans-Serif" font-size="10.00">_section.h</text>
</a>
</g>
</g>
<!-- Node4&#45;&gt;Node18 -->
<g id="edge64_Node000004_Node000018" class="edge">
<title>Node4&#45;&gt;Node18</title>
<g id="a_edge64_Node000004_Node000018"><a xlink:title=" ">
<path fill="none" stroke="#63b8ff" d="M738.79,-433.53C695.72,-427.58 616.8,-413.93 600,-392 568.7,-351.16 615.75,-295.2 648.31,-264.15"/>
<polygon fill="#63b8ff" stroke="#63b8ff" points="650.55,-266.84 655.51,-257.48 645.8,-261.71 650.55,-266.84"/>
</a>
</g>
</g>
<!-- Node19 -->
<g id="Node000019" class="node">
<title>Node19</title>
<g id="a_Node000019"><a xlink:href="data__section__view_8h.html" target="_top" xlink:title="Lazy, bounded view of data blocks in a loaded SSTable.">
<polygon fill="white" stroke="#666666" points="1200,-392 1094,-392 1094,-360 1200,-360 1200,-392"/>
<text xml:space="preserve" text-anchor="start" x="1102" y="-378.5" font-family="Helvetica,sans-Serif" font-size="10.00">sstable_entities/data</text>
<text xml:space="preserve" text-anchor="middle" x="1147" y="-366.5" font-family="Helvetica,sans-Serif" font-size="10.00">_section_view.h</text>
</a>
</g>
</g>
<!-- Node4&#45;&gt;Node19 -->
<g id="edge46_Node000004_Node000019" class="edge">
<title>Node4&#45;&gt;Node19</title>
<g id="a_edge46_Node000004_Node000019"><a xlink:title=" ">
<path fill="none" stroke="#63b8ff" d="M795.18,-433.69C850.16,-427.07 975.52,-411.18 1080,-392 1080.84,-391.85 1081.68,-391.69 1082.52,-391.53"/>
<polygon fill="#63b8ff" stroke="#63b8ff" points="1083.06,-394.99 1092.2,-389.62 1081.71,-388.12 1083.06,-394.99"/>
</a>
</g>
</g>
<!-- Node20 -->
<g id="Node000020" class="node">
<title>Node20</title>
<g id="a_Node000020"><a xlink:href="file__footer__section_8h.html" target="_top" xlink:title="Fixed&#45;size SSTable section directory stored at end&#45;of&#45;file.">
<polygon fill="white" stroke="#666666" points="450,-256 350,-256 350,-224 450,-224 450,-256"/>
<text xml:space="preserve" text-anchor="start" x="358" y="-242.5" font-family="Helvetica,sans-Serif" font-size="10.00">sstable_entities/file</text>
<text xml:space="preserve" text-anchor="middle" x="400" y="-230.5" font-family="Helvetica,sans-Serif" font-size="10.00">_footer_section.h</text>
</a>
</g>
</g>
<!-- Node4&#45;&gt;Node20 -->
<g id="edge53_Node000004_Node000020" class="edge">
<title>Node4&#45;&gt;Node20</title>
<g id="a_edge53_Node000004_Node000020"><a xlink:title=" ">
<path fill="none" stroke="#63b8ff" d="M738.9,-436.26C672.2,-433.98 506.69,-425.04 464,-392 424.52,-361.45 409.1,-301.92 403.3,-267.43"/>
<polygon fill="#63b8ff" stroke="#63b8ff" points="406.81,-267.23 401.85,-257.86 399.89,-268.27 406.81,-267.23"/>
</a>
</g>
</g>
<!-- Node21 -->
<g id="Node000021" class="node">
<title>Node21</title>
<g id="a_Node000021"><a xlink:href="file__header__section_8h.html" target="_top" xlink:title="Fixed SSTable identity and format&#45;version header.">
<polygon fill="white" stroke="#666666" points="924,-256 824,-256 824,-224 924,-224 924,-256"/>
<text xml:space="preserve" text-anchor="start" x="832" y="-242.5" font-family="Helvetica,sans-Serif" font-size="10.00">sstable_entities/file</text>
<text xml:space="preserve" text-anchor="middle" x="874" y="-230.5" font-family="Helvetica,sans-Serif" font-size="10.00">_header_section.h</text>
</a>
</g>
</g>
<!-- Node4&#45;&gt;Node21 -->
<g id="edge57_Node000004_Node000021" class="edge">
<title>Node4&#45;&gt;Node21</title>
<g id="a_edge57_Node000004_Node000021"><a xlink:title=" ">
<path fill="none" stroke="#63b8ff" d="M795.22,-430.07C839.24,-417.51 922.57,-386.33 955,-324 961.56,-311.38 961.87,-304.45 955,-292 948.09,-279.49 936.68,-269.63 924.58,-262.05"/>
<polygon fill="#63b8ff" stroke="#63b8ff" points="926.52,-259.13 916.11,-257.2 923.05,-265.2 926.52,-259.13"/>
</a>
</g>
</g>
<!-- Node22 -->
<g id="Node000022" class="node">
<title>Node22</title>
<g id="a_Node000022"><a xlink:href="meta__section_8h.html" target="_top" xlink:title="Aggregate record statistics and key bounds for one SSTable.">
<polygon fill="white" stroke="#666666" points="821.5,-392 712.5,-392 712.5,-360 821.5,-360 821.5,-392"/>
<text xml:space="preserve" text-anchor="start" x="720.5" y="-378.5" font-family="Helvetica,sans-Serif" font-size="10.00">sstable_entities/meta</text>
<text xml:space="preserve" text-anchor="middle" x="767" y="-366.5" font-family="Helvetica,sans-Serif" font-size="10.00">_section.h</text>
</a>
</g>
</g>
<!-- Node4&#45;&gt;Node22 -->
<g id="edge65_Node000004_Node000022" class="edge">
<title>Node4&#45;&gt;Node22</title>
<g id="a_edge65_Node000004_Node000022"><a xlink:title=" ">
<path fill="none" stroke="#63b8ff" d="M767,-427.62C767,-421.1 767,-412.05 767,-403.4"/>
<polygon fill="#63b8ff" stroke="#63b8ff" points="770.5,-403.65 767,-393.65 763.5,-403.65 770.5,-403.65"/>
</a>
</g>
</g>
<!-- Node6&#45;&gt;Node7 -->
<g id="edge7_Node000006_Node000007" class="edge">
<title>Node6&#45;&gt;Node7</title>
<g id="a_edge7_Node000006_Node000007"><a xlink:title=" ">
<path fill="none" stroke="#63b8ff" d="M973.4,-167.59C954.05,-159.17 925.4,-146.69 903.32,-137.07"/>
<polygon fill="#63b8ff" stroke="#63b8ff" points="904.72,-133.87 894.16,-133.08 901.93,-140.29 904.72,-133.87"/>
</a>
</g>
</g>
<!-- Node7&#45;&gt;Node3 -->
<g id="edge10_Node000007_Node000003" class="edge">
<title>Node7&#45;&gt;Node3</title>
<g id="a_edge10_Node000007_Node000003"><a xlink:title=" ">
<path fill="none" stroke="#63b8ff" d="M862.39,-111.62C845.54,-93.27 807.99,-52.37 786.3,-28.75"/>
<polygon fill="#63b8ff" stroke="#63b8ff" points="788.95,-26.47 779.61,-21.47 783.8,-31.2 788.95,-26.47"/>
</a>
</g>
</g>
<!-- Node7&#45;&gt;Node8 -->
<g id="edge8_Node000007_Node000008" class="edge">
<title>Node7&#45;&gt;Node8</title>
<g id="a_edge8_Node000007_Node000008"><a xlink:title=" ">
<path fill="none" stroke="#63b8ff" d="M843.83,-111.59C815.93,-101.94 772.67,-86.96 744.09,-77.07"/>
<polygon fill="#63b8ff" stroke="#63b8ff" points="745.58,-73.88 734.99,-73.92 743.29,-80.5 745.58,-73.88"/>
</a>
</g>
</g>
<!-- Node8&#45;&gt;Node3 -->
<g id="edge9_Node000008_Node000003" class="edge">
<title>Node8&#45;&gt;Node3</title>
<g id="a_edge9_Node000008_Node000003"><a xlink:title=" ">
<path fill="none" stroke="#63b8ff" d="M724.58,-55.59C732.23,-48.08 743.16,-37.35 752.38,-28.3"/>
<polygon fill="#63b8ff" stroke="#63b8ff" points="754.77,-30.86 759.45,-21.36 749.86,-25.87 754.77,-30.86"/>
</a>
</g>
</g>
<!-- Node9&#45;&gt;Node3 -->
<g id="edge14_Node000009_Node000003" class="edge">
<title>Node9&#45;&gt;Node3</title>
<g id="a_edge14_Node000009_Node000003"><a xlink:title=" ">
<path fill="none" stroke="#63b8ff" d="M413.42,-167.75C437.17,-144.99 502.31,-85.92 568,-56 622.28,-31.28 691.1,-19.69 732.78,-14.61"/>
<polygon fill="#63b8ff" stroke="#63b8ff" points="733,-18.11 742.54,-13.48 732.2,-11.15 733,-18.11"/>
</a>
</g>
</g>
<!-- Node9&#45;&gt;Node8 -->
<g id="edge15_Node000009_Node000008" class="edge">
<title>Node9&#45;&gt;Node8</title>
<g id="a_edge15_Node000009_Node000008"><a xlink:title=" ">
<path fill="none" stroke="#63b8ff" d="M430.78,-167.53C488.64,-147.06 624.94,-98.85 685.32,-77.5"/>
<polygon fill="#63b8ff" stroke="#63b8ff" points="686.32,-80.86 694.58,-74.22 683.98,-74.26 686.32,-80.86"/>
</a>
</g>
</g>
<!-- Node11 -->
<g id="Node000011" class="node">
<title>Node11</title>
<g id="a_Node000011"><a xlink:href="red__black__tree_8h.html" target="_top" xlink:title="Ordered MemTable backend keyed by user key and sequence number.">
<polygon fill="white" stroke="#666666" points="1478,-318 1390,-318 1390,-298 1478,-298 1478,-318"/>
<text xml:space="preserve" text-anchor="middle" x="1434" y="-304.5" font-family="Helvetica,sans-Serif" font-size="10.00">red_black_tree.h</text>
</a>
</g>
</g>
<!-- Node10&#45;&gt;Node11 -->
<g id="edge17_Node000010_Node000011" class="edge">
<title>Node10&#45;&gt;Node11</title>
<g id="a_edge17_Node000010_Node000011"><a xlink:title=" ">
<path fill="none" stroke="#63b8ff" d="M1394.59,-365.54C1401.42,-355.74 1412.28,-340.16 1420.88,-327.83"/>
<polygon fill="#63b8ff" stroke="#63b8ff" points="1423.71,-329.89 1426.56,-319.68 1417.97,-325.88 1423.71,-329.89"/>
</a>
</g>
</g>
<!-- Node11&#45;&gt;Node2 -->
<g id="edge25_Node000011_Node000002" class="edge">
<title>Node11&#45;&gt;Node2</title>
<g id="a_edge25_Node000011_Node000002"><a xlink:title=" ">
<path fill="none" stroke="#63b8ff" d="M1434.19,-297.59C1434,-280.52 1431.07,-244.32 1411,-224 1379.42,-192.03 1326.58,-182.46 1291.51,-179.76"/>
<polygon fill="#63b8ff" stroke="#63b8ff" points="1292.05,-176.29 1281.86,-179.18 1291.63,-183.28 1292.05,-176.29"/>
</a>
</g>
</g>
<!-- Node11&#45;&gt;Node3 -->
<g id="edge19_Node000011_Node000003" class="edge">
<title>Node11&#45;&gt;Node3</title>
<g id="a_edge19_Node000011_Node000003"><a xlink:title=" ">
<path fill="none" stroke="#63b8ff" d="M1443.71,-297.74C1463.36,-277.95 1506,-229.23 1506,-179 1506,-179 1506,-179 1506,-121 1506,-49.54 956.21,-19.43 806.99,-12.58"/>
<polygon fill="#63b8ff" stroke="#63b8ff" points="807.42,-9.1 797.28,-12.14 807.11,-16.09 807.42,-9.1"/>
</a>
</g>
</g>
<!-- Node12 -->
<g id="Node000012" class="node">
<title>Node12</title>
<g id="a_Node000012"><a xlink:href="bytes_8h_source.html" target="_top" xlink:title=" ">
<polygon fill="white" stroke="#666666" points="1402.12,-250 1353.88,-250 1353.88,-230 1402.12,-230 1402.12,-250"/>
<text xml:space="preserve" text-anchor="middle" x="1378" y="-236.5" font-family="Helvetica,sans-Serif" font-size="10.00">bytes.h</text>
</a>
</g>
</g>
<!-- Node11&#45;&gt;Node12 -->
<g id="edge18_Node000011_Node000012" class="edge">
<title>Node11&#45;&gt;Node12</title>
<g id="a_edge18_Node000011_Node000012"><a xlink:title=" ">
<path fill="none" stroke="#63b8ff" d="M1425.98,-297.54C1417.49,-287.55 1403.91,-271.53 1393.35,-259.09"/>
<polygon fill="#63b8ff" stroke="#63b8ff" points="1396.13,-256.95 1386.99,-251.59 1390.79,-261.48 1396.13,-256.95"/>
</a>
</g>
</g>
<!-- Node13 -->
<g id="Node000013" class="node">
<title>Node13</title>
<g id="a_Node000013"><a xlink:href="type_8h.html" target="_top" xlink:title="Mutation kind stored in internal records.">
<polygon fill="white" stroke="#666666" points="1429.5,-188 1386.5,-188 1386.5,-168 1429.5,-168 1429.5,-188"/>
<text xml:space="preserve" text-anchor="middle" x="1408" y="-174.5" font-family="Helvetica,sans-Serif" font-size="10.00">type.h</text>
</a>
</g>
</g>
<!-- Node11&#45;&gt;Node13 -->
<g id="edge20_Node000011_Node000013" class="edge">
<title>Node11&#45;&gt;Node13</title>
<g id="a_edge20_Node000011_Node000013"><a xlink:title=" ">
<path fill="none" stroke="#63b8ff" d="M1437.75,-297.74C1443.51,-282.09 1452.98,-249.61 1444,-224 1440.43,-213.82 1433.48,-204.23 1426.63,-196.55"/>
<polygon fill="#63b8ff" stroke="#63b8ff" points="1429.36,-194.33 1419.9,-189.56 1424.32,-199.19 1429.36,-194.33"/>
</a>
</g>
</g>
<!-- Node11&#45;&gt;Node14 -->
<g id="edge21_Node000011_Node000014" class="edge">
<title>Node11&#45;&gt;Node14</title>
<g id="a_edge21_Node000011_Node000014"><a xlink:title=" ">
<path fill="none" stroke="#63b8ff" d="M1416.23,-297.54C1395.7,-286.61 1361.66,-268.5 1337.65,-255.72"/>
<polygon fill="#63b8ff" stroke="#63b8ff" points="1339.54,-252.76 1329.07,-251.15 1336.25,-258.94 1339.54,-252.76"/>
</a>
</g>
</g>
<!-- Node14&#45;&gt;Node2 -->
<g id="edge22_Node000014_Node000002" class="edge">
<title>Node14&#45;&gt;Node2</title>
<g id="a_edge22_Node000014_Node000002"><a xlink:title=" ">
<path fill="none" stroke="#63b8ff" d="M1301.56,-229.62C1293.59,-220.77 1281.43,-207.26 1271.68,-196.43"/>
<polygon fill="#63b8ff" stroke="#63b8ff" points="1274.51,-194.33 1265.21,-189.24 1269.3,-199.01 1274.51,-194.33"/>
</a>
</g>
</g>
<!-- Node14&#45;&gt;Node7 -->
<g id="edge23_Node000014_Node000007" class="edge">
<title>Node14&#45;&gt;Node7</title>
<g id="a_edge23_Node000014_Node000007"><a xlink:title=" ">
<path fill="none" stroke="#63b8ff" d="M1310.27,-229.91C1310.18,-214.51 1307.56,-183.48 1289,-168 1260.73,-144.42 1017.38,-130.06 915.53,-125.03"/>
<polygon fill="#63b8ff" stroke="#63b8ff" points="915.79,-121.54 905.63,-124.55 915.45,-128.53 915.79,-121.54"/>
</a>
</g>
</g>
<!-- Node14&#45;&gt;Node13 -->
<g id="edge24_Node000014_Node000013" class="edge">
<title>Node14&#45;&gt;Node13</title>
<g id="a_edge24_Node000014_Node000013"><a xlink:title=" ">
<path fill="none" stroke="#63b8ff" d="M1325.31,-229.62C1340.77,-220.16 1364.91,-205.38 1383.12,-194.23"/>
<polygon fill="#63b8ff" stroke="#63b8ff" points="1384.8,-197.31 1391.5,-189.1 1381.15,-191.34 1384.8,-197.31"/>
</a>
</g>
</g>
<!-- Node16&#45;&gt;Node3 -->
<g id="edge30_Node000016_Node000003" class="edge">
<title>Node16&#45;&gt;Node3</title>
<g id="a_edge30_Node000016_Node000003"><a xlink:title=" ">
<path fill="none" stroke="#63b8ff" d="M126.97,-223.56C137.26,-187.09 168.5,-95.68 232,-56 274.27,-29.59 617.76,-16 732.7,-12.16"/>
<polygon fill="#63b8ff" stroke="#63b8ff" points="732.62,-15.66 742.5,-11.84 732.39,-8.67 732.62,-15.66"/>
</a>
</g>
</g>
<!-- Node16&#45;&gt;Node8 -->
<g id="edge31_Node000016_Node000008" class="edge">
<title>Node16&#45;&gt;Node8</title>
<g id="a_edge31_Node000016_Node000008"><a xlink:title=" ">
<path fill="none" stroke="#63b8ff" d="M147.83,-223.56C192.98,-196.26 292.36,-139.74 384,-112 491.53,-79.44 625.86,-70.39 684.85,-67.91"/>
<polygon fill="#63b8ff" stroke="#63b8ff" points="684.89,-71.41 694.75,-67.54 684.62,-64.42 684.89,-71.41"/>
</a>
</g>
</g>
<!-- Node16&#45;&gt;Node15 -->
<g id="edge29_Node000016_Node000015" class="edge">
<title>Node16&#45;&gt;Node15</title>
<g id="a_edge29_Node000016_Node000015"><a xlink:title=" ">
<path fill="none" stroke="#63b8ff" d="M180.14,-230.97C261.56,-219.53 410.13,-198.65 492.01,-187.15"/>
<polygon fill="#63b8ff" stroke="#63b8ff" points="492.43,-190.62 501.85,-185.77 491.46,-183.69 492.43,-190.62"/>
</a>
</g>
</g>
<!-- Node17&#45;&gt;Node3 -->
<g id="edge45_Node000017_Node000003" class="edge">
<title>Node17&#45;&gt;Node3</title>
<g id="a_edge45_Node000017_Node000003"><a xlink:title=" ">
<path fill="none" stroke="#63b8ff" d="M946.24,-298.5C1008.75,-285.14 1104,-252.69 1104,-179 1104,-179 1104,-179 1104,-121 1104,-59.06 894.14,-26.2 807.12,-15.24"/>
<polygon fill="#63b8ff" stroke="#63b8ff" points="807.78,-11.79 797.43,-14.05 806.93,-18.74 807.78,-11.79"/>
</a>
</g>
</g>
<!-- Node17&#45;&gt;Node6 -->
<g id="edge33_Node000017_Node000006" class="edge">
<title>Node17&#45;&gt;Node6</title>
<g id="a_edge33_Node000017_Node000006"><a xlink:title=" ">
<path fill="none" stroke="#63b8ff" d="M923.28,-291.52C937.87,-282.77 954.62,-270.65 966,-256 978.99,-239.28 986.66,-216.11 990.82,-199.56"/>
<polygon fill="#63b8ff" stroke="#63b8ff" points="994.21,-200.42 993,-189.89 987.38,-198.87 994.21,-200.42"/>
</a>
</g>
</g>
<!-- Node17&#45;&gt;Node8 -->
<g id="edge34_Node000017_Node000008" class="edge">
<title>Node17&#45;&gt;Node8</title>
<g id="a_edge34_Node000017_Node000008"><a xlink:title=" ">
<path fill="none" stroke="#63b8ff" d="M861.11,-291.54C845.64,-282.8 827.71,-270.68 815,-256 768.8,-202.63 783.94,-172.76 748,-112 742.59,-102.85 735.76,-93.28 729.72,-85.33"/>
<polygon fill="#63b8ff" stroke="#63b8ff" points="732.49,-83.2 723.58,-77.47 726.98,-87.51 732.49,-83.2"/>
</a>
</g>
</g>
<!-- Node17&#45;&gt;Node14 -->
<g id="edge35_Node000017_Node000014" class="edge">
<title>Node17&#45;&gt;Node14</title>
<g id="a_edge35_Node000017_Node000014"><a xlink:title=" ">
<path fill="none" stroke="#63b8ff" d="M946.24,-298.57C1032.1,-284.98 1199.03,-258.56 1273.08,-246.84"/>
<polygon fill="#63b8ff" stroke="#63b8ff" points="1273.32,-250.35 1282.65,-245.33 1272.22,-243.44 1273.32,-250.35"/>
</a>
</g>
</g>
<!-- Node17&#45;&gt;Node15 -->
<g id="edge36_Node000017_Node000015" class="edge">
<title>Node17&#45;&gt;Node15</title>
<g id="a_edge36_Node000017_Node000015"><a xlink:title=" ">
<path fill="none" stroke="#63b8ff" d="M839.5,-301.86C768.78,-294.3 648.72,-278.6 611,-256 587.98,-242.21 570.22,-216.28 559.94,-198.35"/>
<polygon fill="#63b8ff" stroke="#63b8ff" points="563.1,-196.84 555.25,-189.72 556.95,-200.18 563.1,-196.84"/>
</a>
</g>
</g>
<!-- Node17&#45;&gt;Node18 -->
<g id="edge37_Node000017_Node000018" class="edge">
<title>Node17&#45;&gt;Node18</title>
<g id="a_edge37_Node000017_Node000018"><a xlink:title=" ">
<path fill="none" stroke="#63b8ff" d="M841.89,-291.53C810.57,-282.04 770.27,-269.84 737.11,-259.81"/>
<polygon fill="#63b8ff" stroke="#63b8ff" points="738.2,-256.48 727.62,-256.93 736.17,-263.18 738.2,-256.48"/>
</a>
</g>
</g>
<!-- Node18&#45;&gt;Node2 -->
<g id="edge38_Node000018_Node000002" class="edge">
<title>Node18&#45;&gt;Node2</title>
<g id="a_edge38_Node000018_Node000002"><a xlink:title=" ">
<path fill="none" stroke="#63b8ff" d="M730.52,-232.99C756.22,-230.22 787.16,-226.91 815,-224 965.76,-208.23 1145.59,-190.09 1220.51,-182.56"/>
<polygon fill="#63b8ff" stroke="#63b8ff" points="1220.51,-186.08 1230.11,-181.6 1219.81,-179.11 1220.51,-186.08"/>
</a>
</g>
</g>
<!-- Node18&#45;&gt;Node3 -->
<g id="edge44_Node000018_Node000003" class="edge">
<title>Node18&#45;&gt;Node3</title>
<g id="a_edge44_Node000018_Node000003"><a xlink:title=" ">
<path fill="none" stroke="#63b8ff" d="M671.51,-223.51C664.86,-189.94 653.89,-109.23 688,-56 698.35,-39.85 716.61,-29.02 733.27,-22.04"/>
<polygon fill="#63b8ff" stroke="#63b8ff" points="734.38,-25.37 742.48,-18.54 731.89,-18.83 734.38,-25.37"/>
</a>
</g>
</g>
<!-- Node18&#45;&gt;Node6 -->
<g id="edge39_Node000018_Node000006" class="edge">
<title>Node18&#45;&gt;Node6</title>
<g id="a_edge39_Node000018_Node000006"><a xlink:title=" ">
<path fill="none" stroke="#63b8ff" d="M730.74,-228.55C789.83,-217.47 882.53,-200.09 940.97,-189.13"/>
<polygon fill="#63b8ff" stroke="#63b8ff" points="941.5,-192.59 950.69,-187.31 940.21,-185.71 941.5,-192.59"/>
</a>
</g>
</g>
<!-- Node18&#45;&gt;Node7 -->
<g id="edge40_Node000018_Node000007" class="edge">
<title>Node18&#45;&gt;Node7</title>
<g id="a_edge40_Node000018_Node000007"><a xlink:title=" ">
<path fill="none" stroke="#63b8ff" d="M701.03,-223.6C738.72,-201.29 808.07,-160.24 845.48,-138.1"/>
<polygon fill="#63b8ff" stroke="#63b8ff" points="847,-141.27 853.83,-133.16 843.44,-135.25 847,-141.27"/>
</a>
</g>
</g>
<!-- Node18&#45;&gt;Node8 -->
<g id="edge41_Node000018_Node000008" class="edge">
<title>Node18&#45;&gt;Node8</title>
<g id="a_edge41_Node000018_Node000008"><a xlink:title=" ">
<path fill="none" stroke="#63b8ff" d="M678.55,-223.74C685.77,-192.69 702.17,-122.18 710.28,-87.31"/>
<polygon fill="#63b8ff" stroke="#63b8ff" points="713.66,-88.22 712.52,-77.68 706.84,-86.63 713.66,-88.22"/>
</a>
</g>
</g>
<!-- Node18&#45;&gt;Node9 -->
<g id="edge42_Node000018_Node000009" class="edge">
<title>Node18&#45;&gt;Node9</title>
<g id="a_edge42_Node000018_Node000009"><a xlink:title=" ">
<path fill="none" stroke="#63b8ff" d="M619.51,-226.71C570.29,-215.82 499.15,-200.07 452.25,-189.68"/>
<polygon fill="#63b8ff" stroke="#63b8ff" points="453.17,-186.3 442.65,-187.56 451.66,-193.14 453.17,-186.3"/>
</a>
</g>
</g>
<!-- Node18&#45;&gt;Node15 -->
<g id="edge43_Node000018_Node000015" class="edge">
<title>Node18&#45;&gt;Node15</title>
<g id="a_edge43_Node000018_Node000015"><a xlink:title=" ">
<path fill="none" stroke="#63b8ff" d="M642.81,-223.55C623.37,-214.22 598.77,-202.41 579.78,-193.29"/>
<polygon fill="#63b8ff" stroke="#63b8ff" points="581.49,-190.23 570.96,-189.06 578.47,-196.55 581.49,-190.23"/>
</a>
</g>
</g>
<!-- Node19&#45;&gt;Node2 -->
<g id="edge47_Node000019_Node000002" class="edge">
<title>Node19&#45;&gt;Node2</title>
<g id="a_edge47_Node000019_Node000002"><a xlink:title=" ">
<path fill="none" stroke="#63b8ff" d="M1181.45,-359.68C1196.68,-351.24 1213.47,-339.34 1224,-324 1250.18,-285.86 1255.38,-229.94 1256.15,-199.91"/>
<polygon fill="#63b8ff" stroke="#63b8ff" points="1259.65,-199.97 1256.24,-189.94 1252.65,-199.9 1259.65,-199.97"/>
</a>
</g>
</g>
<!-- Node19&#45;&gt;Node3 -->
<g id="edge52_Node000019_Node000003" class="edge">
<title>Node19&#45;&gt;Node3</title>
<g id="a_edge52_Node000019_Node000003"><a xlink:title=" ">
<path fill="none" stroke="#63b8ff" d="M1151.31,-359.9C1160.26,-327.21 1180,-247.32 1180,-179 1180,-179 1180,-179 1180,-121 1180,-44.25 908.6,-19.57 807.42,-13.04"/>
<polygon fill="#63b8ff" stroke="#63b8ff" points="807.67,-9.55 797.47,-12.43 807.23,-16.54 807.67,-9.55"/>
</a>
</g>
</g>
<!-- Node19&#45;&gt;Node8 -->
<g id="edge49_Node000019_Node000008" class="edge">
<title>Node19&#45;&gt;Node8</title>
<g id="a_edge49_Node000019_Node000008"><a xlink:title=" ">
<path fill="none" stroke="#63b8ff" d="M1145.47,-359.65C1140.91,-321.79 1123.98,-222.99 1068,-168 977.03,-78.64 812.68,-67.26 745.18,-66.56"/>
<polygon fill="#63b8ff" stroke="#63b8ff" points="745.26,-63.06 735.26,-66.54 745.25,-70.06 745.26,-63.06"/>
</a>
</g>
</g>
<!-- Node19&#45;&gt;Node14 -->
<g id="edge50_Node000019_Node000014" class="edge">
<title>Node19&#45;&gt;Node14</title>
<g id="a_edge50_Node000019_Node000014"><a xlink:title=" ">
<path fill="none" stroke="#63b8ff" d="M1199.69,-359.6C1220.81,-351.52 1244.29,-339.91 1262,-324 1281.3,-306.66 1294.89,-279.67 1302.57,-261.21"/>
<polygon fill="#63b8ff" stroke="#63b8ff" points="1305.83,-262.49 1306.21,-251.9 1299.31,-259.94 1305.83,-262.49"/>
</a>
</g>
</g>
<!-- Node19&#45;&gt;Node15 -->
<g id="edge51_Node000019_Node000015" class="edge">
<title>Node19&#45;&gt;Node15</title>
<g id="a_edge51_Node000019_Node000015"><a xlink:title=" ">
<path fill="none" stroke="#63b8ff" d="M1093.54,-371.02C965.93,-360.44 648.58,-327.41 574,-256 558.69,-241.34 553.1,-217.1 551.08,-199.74"/>
<polygon fill="#63b8ff" stroke="#63b8ff" points="554.57,-199.49 550.27,-189.81 547.59,-200.06 554.57,-199.49"/>
</a>
</g>
</g>
<!-- Node19&#45;&gt;Node17 -->
<g id="edge48_Node000019_Node000017" class="edge">
<title>Node19&#45;&gt;Node17</title>
<g id="a_edge48_Node000019_Node000017"><a xlink:title=" ">
<path fill="none" stroke="#63b8ff" d="M1093.75,-361.16C1053.96,-350.82 999.38,-336.64 957.18,-325.68"/>
<polygon fill="#63b8ff" stroke="#63b8ff" points="958.2,-322.33 947.64,-323.2 956.44,-329.1 958.2,-322.33"/>
</a>
</g>
</g>
<!-- Node20&#45;&gt;Node3 -->
<g id="edge56_Node000020_Node000003" class="edge">
<title>Node20&#45;&gt;Node3</title>
<g id="a_edge56_Node000020_Node000003"><a xlink:title=" ">
<path fill="none" stroke="#63b8ff" d="M380.62,-223.69C365.07,-209.44 347.45,-187.53 358,-168 401.19,-88.07 444.71,-89.89 529,-56 597.63,-28.41 684.13,-17.54 732.62,-13.41"/>
<polygon fill="#63b8ff" stroke="#63b8ff" points="732.9,-16.9 742.59,-12.61 732.34,-9.92 732.9,-16.9"/>
</a>
</g>
</g>
<!-- Node20&#45;&gt;Node8 -->
<g id="edge54_Node000020_Node000008" class="edge">
<title>Node20&#45;&gt;Node8</title>
<g id="a_edge54_Node000020_Node000008"><a xlink:title=" ">
<path fill="none" stroke="#63b8ff" d="M418.1,-223.62C436.63,-208.33 466.65,-184.79 495,-168 528.2,-148.34 538.92,-148.08 574,-132 612.72,-114.25 657.36,-93.65 685.86,-80.48"/>
<polygon fill="#63b8ff" stroke="#63b8ff" points="687.33,-83.66 694.94,-76.28 684.39,-77.3 687.33,-83.66"/>
</a>
</g>
</g>
<!-- Node20&#45;&gt;Node15 -->
<g id="edge55_Node000020_Node000015" class="edge">
<title>Node20&#45;&gt;Node15</title>
<g id="a_edge55_Node000020_Node000015"><a xlink:title=" ">
<path fill="none" stroke="#63b8ff" d="M438.63,-223.55C462.5,-214 492.86,-201.86 515.85,-192.66"/>
<polygon fill="#63b8ff" stroke="#63b8ff" points="517.09,-195.93 525.07,-188.97 514.49,-189.43 517.09,-195.93"/>
</a>
</g>
</g>
<!-- Node21&#45;&gt;Node3 -->
<g id="edge58_Node000021_Node000003" class="edge">
<title>Node21&#45;&gt;Node3</title>
<g id="a_edge58_Node000021_Node000003"><a xlink:title=" ">
<path fill="none" stroke="#63b8ff" d="M885.83,-223.87C903.44,-199.38 932.48,-149.96 913,-112 890.87,-68.87 840.8,-40.28 806.21,-24.85"/>
<polygon fill="#63b8ff" stroke="#63b8ff" points="807.97,-21.8 797.4,-21.08 805.22,-28.23 807.97,-21.8"/>
</a>
</g>
</g>
<!-- Node21&#45;&gt;Node6 -->
<g id="edge60_Node000021_Node000006" class="edge">
<title>Node21&#45;&gt;Node6</title>
<g id="a_edge60_Node000021_Node000006"><a xlink:title=" ">
<path fill="none" stroke="#63b8ff" d="M905.16,-223.55C923.89,-214.26 947.57,-202.52 965.92,-193.42"/>
<polygon fill="#63b8ff" stroke="#63b8ff" points="967.27,-196.66 974.67,-189.08 964.16,-190.39 967.27,-196.66"/>
</a>
</g>
</g>
<!-- Node21&#45;&gt;Node7 -->
<g id="edge62_Node000021_Node000007" class="edge">
<title>Node21&#45;&gt;Node7</title>
<g id="a_edge62_Node000021_Node000007"><a xlink:title=" ">
<path fill="none" stroke="#63b8ff" d="M873.61,-223.84C873.08,-203.41 872.14,-166.97 871.54,-143.95"/>
<polygon fill="#63b8ff" stroke="#63b8ff" points="875.04,-143.86 871.28,-133.95 868.04,-144.04 875.04,-143.86"/>
</a>
</g>
</g>
<!-- Node21&#45;&gt;Node8 -->
<g id="edge61_Node000021_Node000008" class="edge">
<title>Node21&#45;&gt;Node8</title>
<g id="a_edge61_Node000021_Node000008"><a xlink:title=" ">
<path fill="none" stroke="#63b8ff" d="M866.15,-223.86C852.46,-198.49 822.19,-146.73 786,-112 773.58,-100.08 757.54,-89.59 743.84,-81.75"/>
<polygon fill="#63b8ff" stroke="#63b8ff" points="745.7,-78.78 735.25,-77.01 742.32,-84.91 745.7,-78.78"/>
</a>
</g>
</g>
<!-- Node21&#45;&gt;Node9 -->
<g id="edge59_Node000021_Node000009" class="edge">
<title>Node21&#45;&gt;Node9</title>
<g id="a_edge59_Node000021_Node000009"><a xlink:title=" ">
<path fill="none" stroke="#63b8ff" d="M823.7,-232.58C732.73,-220.97 541.99,-196.62 452.42,-185.18"/>
<polygon fill="#63b8ff" stroke="#63b8ff" points="453.1,-181.74 442.74,-183.95 452.21,-188.68 453.1,-181.74"/>
</a>
</g>
</g>
<!-- Node21&#45;&gt;Node15 -->
<g id="edge63_Node000021_Node000015" class="edge">
<title>Node21&#45;&gt;Node15</title>
<g id="a_edge63_Node000021_Node000015"><a xlink:title=" ">
<path fill="none" stroke="#63b8ff" d="M823.73,-229.69C765.33,-218.88 669.17,-201.07 607.75,-189.69"/>
<polygon fill="#63b8ff" stroke="#63b8ff" points="608.66,-186.3 598.19,-187.92 607.39,-193.19 608.66,-186.3"/>
</a>
</g>
</g>
<!-- Node22&#45;&gt;Node2 -->
<g id="edge66_Node000022_Node000002" class="edge">
<title>Node22&#45;&gt;Node2</title>
<g id="a_edge66_Node000022_Node000002"><a xlink:title=" ">
<path fill="none" stroke="#63b8ff" d="M821.87,-362.12C859.67,-352.76 910.85,-339.13 955,-324 1029.26,-298.56 1047.39,-290.29 1118,-256 1158.48,-236.34 1203.75,-210.26 1231.05,-194.06"/>
<polygon fill="#63b8ff" stroke="#63b8ff" points="1232.49,-197.27 1239.28,-189.14 1228.9,-191.26 1232.49,-197.27"/>
</a>
</g>
</g>
<!-- Node22&#45;&gt;Node3 -->
<g id="edge72_Node000022_Node000003" class="edge">
<title>Node22&#45;&gt;Node3</title>
<g id="a_edge72_Node000022_Node000003"><a xlink:title=" ">
<path fill="none" stroke="#63b8ff" d="M712.23,-361.64C578.46,-328.91 246,-246.97 246,-241 246,-241 246,-241 246,-121 246,-21.47 612.66,-11.48 732.56,-10.88"/>
<polygon fill="#63b8ff" stroke="#63b8ff" points="732.51,-14.38 742.5,-10.85 732.49,-7.38 732.51,-14.38"/>
</a>
</g>
</g>
<!-- Node22&#45;&gt;Node6 -->
<g id="edge67_Node000022_Node000006" class="edge">
<title>Node22&#45;&gt;Node6</title>
<g id="a_edge67_Node000022_Node000006"><a xlink:title=" ">
<path fill="none" stroke="#63b8ff" d="M775.15,-359.66C785.71,-341.15 805.8,-310.25 831,-292 869.94,-263.81 893.76,-283.78 933,-256 954.81,-240.56 973.02,-215.42 983.95,-198.09"/>
<polygon fill="#63b8ff" stroke="#63b8ff" points="986.81,-200.13 988.99,-189.76 980.82,-196.5 986.81,-200.13"/>
</a>
</g>
</g>
<!-- Node22&#45;&gt;Node8 -->
<g id="edge68_Node000022_Node000008" class="edge">
<title>Node22&#45;&gt;Node8</title>
<g id="a_edge68_Node000022_Node000008"><a xlink:title=" ">
<path fill="none" stroke="#63b8ff" d="M764.42,-359.73C755.85,-308.94 728.29,-145.71 718.49,-87.7"/>
<polygon fill="#63b8ff" stroke="#63b8ff" points="721.96,-87.21 716.84,-77.93 715.06,-88.37 721.96,-87.21"/>
</a>
</g>
</g>
<!-- Node22&#45;&gt;Node15 -->
<g id="edge69_Node000022_Node000015" class="edge">
<title>Node22&#45;&gt;Node15</title>
<g id="a_edge69_Node000022_Node000015"><a xlink:title=" ">
<path fill="none" stroke="#63b8ff" d="M726.32,-359.6C666.85,-336.18 560.96,-290.65 540,-256 529.56,-238.74 534.74,-215.34 540.85,-198.88"/>
<polygon fill="#63b8ff" stroke="#63b8ff" points="544.06,-200.29 544.67,-189.71 537.6,-197.59 544.06,-200.29"/>
</a>
</g>
</g>
<!-- Node22&#45;&gt;Node17 -->
<g id="edge70_Node000022_Node000017" class="edge">
<title>Node22&#45;&gt;Node17</title>
<g id="a_edge70_Node000022_Node000017"><a xlink:title=" ">
<path fill="none" stroke="#63b8ff" d="M796.54,-359.53C813.52,-350.63 835.08,-339.34 853.5,-329.69"/>
<polygon fill="#63b8ff" stroke="#63b8ff" points="855.07,-332.82 862.3,-325.08 851.82,-326.62 855.07,-332.82"/>
</a>
</g>
</g>
<!-- Node22&#45;&gt;Node18 -->
<g id="edge71_Node000022_Node000018" class="edge">
<title>Node22&#45;&gt;Node18</title>
<g id="a_edge71_Node000022_Node000018"><a xlink:title=" ">
<path fill="none" stroke="#63b8ff" d="M756.45,-359.63C740.64,-336.61 710.67,-292.95 691.82,-265.5"/>
<polygon fill="#63b8ff" stroke="#63b8ff" points="694.83,-263.7 686.29,-257.44 689.06,-267.67 694.83,-263.7"/>
</a>
</g>
</g>
</g>
</svg>

<g id="navigator" transform="translate(0 0)" fill="#404254">
  <rect fill="#f2f5e9" fill-opacity="0.5" stroke="#606060" stroke-width=".5" x="0" y="0" width="60" height="60"/>
  <use id="zoomplus" xlink:href="#zoomPlus" x="17" y="9" onmousedown="handleZoom(evt,'in')"/>
  <use id="zoomminus" xlink:href="#zoomMin" x="42" y="9" onmousedown="handleZoom(evt,'out')"/>
  <use id="reset" xlink:href="#resetDef" x="30" y="36" onmousedown="handleReset()"/>
   <use id="arrowup" xlink:href="#arrowUp" x="0" y="0" onmousedown="handlePan(0,-1)"/>
  <use id="arrowright" xlink:href="#arrowRight" x="0" y="0" onmousedown="handlePan(1,0)"/>
  <use id="arrowdown" xlink:href="#arrowDown" x="0" y="0" onmousedown="handlePan(0,1)"/>
  <use id="arrowleft" xlink:href="#arrowLeft" x="0" y="0" onmousedown="handlePan(-1,0)"/>
</g>
<svg viewBox="0 0 15 15" width="100%" height="30px" preserveAspectRatio="xMaxYMin meet">
 <g id="arrow_out" transform="scale(0.3 0.3)">
  <a xlink:href="sstable__iterator_8h__incl_org.svg" target="_base">
   <rect id="button" ry="5" rx="5" y="6" x="6" height="38" width="38"
        fill="#f2f5e9" fill-opacity="0.5" stroke="#606060" stroke-width="1.0"/>
   <path id="arrow"
     d="M 11.500037,31.436501 C 11.940474,20.09759 22.043105,11.32322 32.158766,21.979434 L 37.068811,17.246167 C 37.068811,17.246167 37.088388,32 37.088388,32 L 22.160133,31.978069 C 22.160133,31.978069 26.997745,27.140456 26.997745,27.140456 C 18.528582,18.264221 13.291696,25.230495 11.500037,31.436501 z"
     style="fill:#404040;"/>
  </a>
 </g>
</svg>

<style type='text/css'>
<![CDATA[
[data-mouse-over-selected='false'] { opacity: 0.7; }
[data-mouse-over-selected='true']  { opacity: 1.0; }
]]>
</style>
<script type="application/ecmascript"><![CDATA[
document.addEventListener('DOMContentLoaded', (event) => {
  highlightEdges();
  highlightAdjacentNodes();
});
]]></script>
</svg>
